<?xml version="1.0" standalone="no"?>
<!DOCTYPE svg PUBLIC "-//W3C//DTD SVG 20010904//EN"
 "http://www.w3.org/TR/2001/REC-SVG-20010904/DTD/svg10.dtd">
<svg version="1.0" xmlns="http://www.w3.org/2000/svg"
 width="68.000000pt" height="68.000000pt" viewBox="0 0 68.000000 68.000000"
 preserveAspectRatio="xMidYMid meet">
<!-- Background color -->
  <rect width="100%" height="100%" fill="#f1e68a"/>

<g transform="translate(0.000000,69.000000) scale(0.100,-0.10000)"
fill="#000000" stroke="none">
<path d="M310 500 c-11 -11 -20 -30 -20 -43 0 -12 9 -40 20 -62 23 -45 23 -45
11 -45 -5 0 -23 14 -40 31 -26 26 -37 30 -73 27 -36 -3 -44 -7 -46 -26 -7 -48
54 -80 117 -62 24 7 31 6 31 -6 0 -8 -7 -14 -16 -14 -22 0 -84 -64 -84 -87 0
-45 55 -58 90 -21 11 12 23 39 26 60 8 49 20 49 28 0 3 -21 15 -48 26 -60 35
-37 90 -24 90 21 0 23 -62 87 -84 87 -9 0 -16 7 -16 16 0 12 5 13 23 7 63 -22
131 8 125 56 -3 23 -8 26 -46 29 -36 3 -47 -1 -73 -27 -39 -40 -52 -32 -28 16
10 21 19 48 19 60 0 23 -32 63 -50 63 -5 0 -19 -9 -30 -20z m60 -21 c13 -23 6
-65 -15 -93 -15 -20 -15 -20 -30 0 -34 46 -26 114 15 114 11 0 24 -9 30 -21z
m-100 -105 c18 -16 27 -31 22 -36 -13 -13 -75 -13 -100 1 -21 11 -29 40 -15
54 15 16 64 5 93 -19z m238 -2 c3 -17 -4 -26 -30 -36 -32 -14 -83 -11 -93 4
-3 5 9 20 26 35 41 33 92 32 97 -3z m-150 -45 c2 -12 -3 -17 -17 -17 -12 0
-21 6 -21 13 0 31 32 34 38 4z m-42 -69 c-9 -47 -33 -78 -60 -78 -66 0 -14
108 53 110 10 0 12 -8 7 -32z m89 20 c31 -14 58 -60 49 -82 -9 -24 -51 -19
-69 7 -20 31 -31 87 -17 87 6 0 23 -5 37 -12z" fill="#024B51"/>
</g>
</svg>
