<svg width="178" height="45" viewBox="0 0 178 45" fill="none" xmlns="http://www.w3.org/2000/svg">
    <!-- Background color -->
    <rect width="100%" height="100%" fill="#f1e68a"/>
<path d="M70.8598 37.788V18.9239L77.0085 37.788H81.3962L87.545 18.9239V37.788H92.067V12.9169H85.0601L79.2173 30.8258L73.3447 12.9169H66.3303V37.788H70.8598ZM103.439 38.273C108.931 38.273 112.349 34.0196 112.349 28.9827C112.349 23.9458 108.931 19.685 103.439 19.685C97.9471 19.685 94.522 23.9384 94.522 28.9827C94.522 34.0271 97.9396 38.273 103.439 38.273ZM103.439 34.333C100.708 34.333 98.8425 32.1914 98.8425 28.9827C98.8425 25.774 100.708 23.625 103.439 23.625C106.17 23.625 107.998 25.7666 107.998 28.9827C107.998 32.1989 106.133 34.333 103.439 34.333ZM128.064 21.7594C127.446 21.0787 126.688 20.5405 125.841 20.1823C124.995 19.8241 124.08 19.6544 123.161 19.685C122.335 19.6603 121.512 19.8037 120.742 20.1064C119.973 20.4091 119.272 20.8648 118.684 21.446V20.17H114.535V37.788H118.856V27.2888C118.817 26.7884 118.88 26.2852 119.04 25.8095C119.2 25.3338 119.455 24.8954 119.789 24.5204C120.112 24.2185 120.493 23.9839 120.908 23.8302C121.323 23.6765 121.764 23.6067 122.206 23.625C123.077 23.6004 123.923 23.9224 124.557 24.5204C124.89 24.8954 125.145 25.3338 125.305 25.8095C125.466 26.2852 125.528 26.7884 125.49 27.2888V37.788H129.81V27.0426C129.862 24.5577 129.206 22.931 128.094 21.7594H128.064ZM137.071 18.0657V13.4318H132.593V18.0657H137.071ZM137.004 37.788V20.17H132.683V37.788H137.004ZM146.786 37.788V23.901H150.928V20.17H146.786V18.1702C146.786 17.2001 146.958 16.6106 148.129 16.6106H150.928V12.6707H147.338C145.264 12.6707 144.227 13.193 143.503 14.0213C142.779 14.8496 142.503 15.745 142.503 17.5135V20.17H138.668V23.901H142.503V37.788H146.786ZM157.912 37.788V12.9169H153.592V37.788H157.912ZM169.061 38.273C174.553 38.273 177.97 34.0196 177.97 28.9827C177.97 23.9458 174.553 19.685 169.061 19.685C163.568 19.685 160.151 23.9384 160.151 28.9827C160.151 34.0271 163.598 38.273 169.09 38.273H169.061ZM169.061 34.333C166.329 34.333 164.464 32.1914 164.464 28.9827C164.464 25.774 166.329 23.625 169.061 23.625C171.792 23.625 173.62 25.7666 173.62 28.9827C173.62 32.1989 171.784 34.333 169.09 34.333H169.061Z" fill="#024B51"/>
<path d="M23.0203 27.2343L23.5742 27.2418L24.1206 27.2717L24.667 27.3091L25.2134 27.3615L25.7598 27.4364L26.2987 27.5187L26.8376 27.6235L27.3615 27.7358L27.8929 27.8705L28.4094 28.0202L28.9184 28.1774L29.4198 28.3495L29.9138 28.5441L30.4003 28.7462L30.8794 28.9558L31.3434 29.1878L31.7925 29.4273L32.2341 29.6743L32.6683 29.9363L33.0874 30.2132L33.4916 30.4977L33.8808 30.7896L34.255 31.089L34.6218 31.4033L34.9661 31.7177L35.2954 32.047L35.6173 32.3763L35.9167 32.7132L36.2011 33.0575L36.4631 33.4092L36.7175 33.761L36.9496 34.1128L37.1666 34.4721L37.3612 34.8314L37.5409 35.1981L37.7055 35.5574L37.8477 35.9167L37.975 36.2759L38.0873 36.6352L38.1771 36.9945L38.2519 37.3463L38.3118 37.698L38.3492 38.0424L38.3717 38.3792V38.716L38.3567 39.0378L38.3268 39.3597L38.2819 39.674L38.2145 39.9734L38.1397 40.2653L38.0424 40.5498L37.9301 40.8267L37.8103 41.0887L37.6681 41.3357L37.5109 41.5752L37.3463 41.7997L37.1666 42.0168L36.972 42.2114L36.7624 42.3985L36.5454 42.5707L36.3208 42.7204L36.0813 42.8626L35.8343 42.9823L35.5724 43.0871L35.3104 43.1769L35.0335 43.2518L34.7565 43.3042L34.4646 43.3416L34.1727 43.3641L33.8733 43.3715L33.5664 43.3566L33.2596 43.3191L32.9452 43.2668L32.6383 43.1994L32.3165 43.1096L32.0021 43.0048L31.6877 42.8775L31.3734 42.7353L31.059 42.5782L30.7447 42.3985L30.4303 42.1964L30.1234 41.9868L29.824 41.7473L29.5246 41.5003L29.2252 41.2309L28.9408 40.9539L28.6639 40.6546L28.3869 40.3327L28.1175 40.0034L27.863 39.6591L27.616 39.2998L27.3765 38.9181L27.1445 38.5289L26.9274 38.1247L26.7178 37.713L26.5232 37.2789L26.3436 36.8448L26.1714 36.3882L26.0142 35.9316L25.8646 35.4526L25.7373 34.9736L25.6176 34.4871L25.5202 33.9856L25.4304 33.4766L25.3556 32.9676L25.3032 32.4512L25.2583 31.9273L25.2358 31.3958L25.2209 30.8644L25.2283 30.3255L25.2433 29.7941L25.2807 29.2552L25.3331 28.7088L25.408 28.1699L25.4903 27.631L25.5876 27.0921L25.7074 26.5532L25.8346 26.0217L25.9843 25.4903L26.149 24.9664L26.3286 24.4424L26.5157 23.926L26.7253 23.417L26.9498 22.9155L27.1819 22.4215L27.4289 21.935L27.6908 21.456L27.9678 20.9919L28.2522 20.5279L28.5516 20.0863L28.866 19.6447L29.1878 19.2255L29.5171 18.8139L29.8614 18.4097L30.2132 18.0279L30.5725 17.6537L30.9393 17.2944L31.3135 16.9576L31.6952 16.6283L32.0919 16.3139L32.4811 16.0145L32.8853 15.7376L33.2895 15.4681L33.6937 15.2211L34.1053 14.9891L34.517 14.772L34.9287 14.5774L35.3403 14.3978L35.7595 14.2331L36.1711 14.0834L36.5828 13.9562L36.9945 13.8439L37.3987 13.7541L37.8028 13.6718L38.207 13.6119L38.5962 13.567L38.9854 13.5445L39.3672 13.5371H39.7414L40.1082 13.567L40.4674 13.6044L40.8192 13.6568L41.156 13.7242L41.4854 13.814L41.8072 13.9113L42.1141 14.0236L42.406 14.1508L42.6904 14.293L42.9599 14.4502L43.2144 14.6149L43.4539 14.7945L43.6784 14.9816L43.888 15.1837L44.0826 15.3933L44.2622 15.6103L44.4269 15.8424L44.5766 16.0819L44.7038 16.3289L44.8161 16.5759L44.9059 16.8379L44.9808 17.0998L45.0407 17.3693L45.0856 17.6462L45.1005 17.9232L45.108 18.2076L45.0931 18.4845L45.0556 18.7764L45.0032 19.0608L44.9359 19.3453L44.8461 19.6297L44.7338 19.9141L44.6065 20.1985L44.4643 20.4755L44.2997 20.7524L44.12 21.0294L43.9179 21.2913L43.7009 21.5533L43.4688 21.8153L43.2144 22.0623L42.9524 22.3018L42.668 22.5413L42.3686 22.7658L42.0542 22.9829L41.7249 23.1925L41.3806 23.3871L41.0213 23.5742L40.6471 23.7463L40.2653 23.911L39.8686 24.0607L39.457 24.1954L39.0378 24.3227L38.6037 24.435L38.1621 24.5323L37.713 24.6146L37.249 24.6819L36.7849 24.7343L36.3059 24.7718L35.8268 24.7942L35.3403 24.8092L34.8463 24.7942L34.3449 24.7718L33.8434 24.7343L33.3419 24.6745L32.8329 24.5996L32.3165 24.5098L31.8075 24.405L31.2985 24.2853L30.7896 24.1505L30.2806 23.9933L29.7716 23.8212L29.2627 23.6341L28.7612 23.4395L28.2672 23.2149L27.7732 22.9829L27.2867 22.7359L26.8002 22.4739L26.3286 22.197L25.8646 21.9126L25.4005 21.6057L24.9514 21.2913L24.5098 20.962L24.0832 20.6177L23.664 20.2584L23.2523 19.8991L22.8557 19.5174L22.4664 19.1357L22.0922 18.739L21.7329 18.3273L21.3886 17.9157L21.0518 17.489L20.7374 17.0624L20.4306 16.6208L20.1461 16.1792L19.8692 15.7301L19.6072 15.281L19.3677 14.8244L19.1432 14.3604L18.9336 13.8963L18.739 13.4323L18.5594 12.9682L18.4022 12.4967L18.2525 12.0326L18.1327 11.5685L18.0205 11.1045L17.9232 10.6404L17.8483 10.1839L17.7884 9.72728L17.7435 9.27819L17.7136 8.8291L17.7061 8.39498V7.96086L17.7286 7.53423L17.766 7.12256L17.8184 6.7109L17.8857 6.3142L17.9606 5.92499L18.0579 5.55075L18.1702 5.18399L18.2899 4.82472L18.4246 4.48791L18.5743 4.15857L18.7315 3.84421L18.9037 3.53733L19.0908 3.25291L19.2779 2.98346L19.4875 2.72149L19.6971 2.48197L19.9141 2.25743L20.1461 2.04786L20.3857 1.86073L20.6252 1.68858L20.8797 1.5314L21.1341 1.38919L21.3961 1.26943L21.6581 1.17213L21.9275 1.08231L22.197 1.02244L22.4739 0.970041L22.7434 0.947587L23.0203 0.932617L23.2973 0.947587L23.5742 0.970041L23.8436 1.02244L24.1131 1.08231L24.3826 1.17213L24.652 1.26943L24.9065 1.38919L25.161 1.5314L25.4155 1.68858L25.655 1.86073L25.8945 2.04786L26.1265 2.25743L26.3436 2.48197L26.5606 2.72149L26.7627 2.98346L26.9573 3.25291L27.137 3.53733L27.3091 3.84421L27.4663 4.15857L27.616 4.48791L27.7507 4.82472L27.8705 5.18399L27.9828 5.55075L28.0801 5.92499L28.1624 6.3142L28.2223 6.7109L28.2747 7.12256L28.3121 7.53423L28.3345 7.96086V8.39498L28.3271 8.8291L28.2971 9.27819L28.2522 9.72728L28.1923 10.1839L28.1175 10.6404L28.0202 11.1045L27.9154 11.5685L27.7881 12.0326L27.6385 12.4967L27.4813 12.9682L27.3016 13.4323L27.107 13.8963L26.8975 14.3604L26.6729 14.8244L26.4334 15.281L26.1714 15.7301L25.902 16.1792L25.6101 16.6208L25.3032 17.0624L24.9888 17.489L24.652 17.9157L24.3077 18.3273L23.9484 18.739L23.5742 19.1357L23.185 19.5174L22.7883 19.8991L22.3841 20.2584L21.9575 20.6177L21.5308 20.962L21.0892 21.2913L20.6401 21.6057L20.1761 21.9126L19.712 22.197L19.2405 22.4739L18.754 22.7359L18.2675 22.9829L17.7735 23.2149L17.2795 23.4395L16.778 23.6341L16.269 23.8212L15.7675 23.9933L15.2586 24.1505L14.7421 24.2853L14.2331 24.405L13.7242 24.5098L13.2152 24.5996L12.7062 24.6745L12.1973 24.7343L11.6958 24.7718L11.1943 24.7942L10.7003 24.8092L10.2138 24.7942L9.73476 24.7718L9.25574 24.7343L8.79168 24.6819L8.32762 24.6146L7.87853 24.5323L7.43692 24.435L7.00281 24.3227L6.58366 24.1954L6.17199 24.0607L5.7753 23.911L5.39357 23.7463L5.01933 23.5742L4.66006 23.3871L4.31576 23.1925L3.98642 22.9829L3.67206 22.7658L3.37267 22.5413L3.08825 22.3018L2.82628 22.0623L2.57179 21.8153L2.33976 21.5533L2.1227 21.2913L1.92061 21.0294L1.74098 20.7524L1.57631 20.4755L1.4341 20.1985L1.30686 19.9141L1.19459 19.6297L1.11225 19.3453L1.0374 19.0608L0.985011 18.7764L0.947587 18.4845L0.932617 18.2076L0.940102 17.9232L0.962556 17.6462L0.999981 17.3693L1.05986 17.0998L1.13471 16.8379L1.22453 16.5759L1.3368 16.3289L1.47152 16.0819L1.61374 15.8424L1.7784 15.6103L1.95804 15.3933L2.15264 15.1837L2.36222 14.9816L2.58676 14.7945L2.82628 14.6149L3.08076 14.4502L3.35021 14.293L3.63464 14.1508L3.92654 14.0236L4.23342 13.9113L4.55527 13.814L4.8846 13.7242L5.22142 13.6568L5.57321 13.6044L5.93248 13.567L6.29923 13.5371H6.67347L7.0552 13.5445L7.44441 13.567L7.84111 13.6119L8.2378 13.6718L8.64198 13.7541L9.04616 13.8439L9.45783 13.9562L9.86949 14.0834L10.2812 14.2331L10.7003 14.3978L11.112 14.5774L11.5236 14.772L11.9428 14.9891L12.347 15.2211L12.7586 15.4681L13.1628 15.7376L13.5595 16.0145L13.9562 16.3139L14.3454 16.6283L14.7271 16.9576L15.1014 17.2944L15.4681 17.6537L15.8274 18.0279L16.1792 18.4097L16.5235 18.8139L16.8528 19.2255L17.1747 19.6447L17.489 20.0863L17.7884 20.5279L18.0729 20.9919L18.3498 21.456L18.6118 21.935L18.8588 22.4215L19.0983 22.9155L19.3153 23.417L19.5249 23.926L19.7195 24.4424L19.8917 24.9664L20.0563 25.4903L20.206 26.0217L20.3333 26.5532L20.453 27.0921L20.5503 27.631L20.6401 28.1699L20.7075 28.7088L20.7599 29.2552L20.7973 29.7941L20.8198 30.3255V30.8644L20.8123 31.3958L20.7824 31.9273L20.7374 32.4512L20.6851 32.9676L20.6102 33.4766L20.5204 33.9856L20.4231 34.4871L20.3033 34.9736L20.1761 35.4526L20.0264 35.9316L19.8692 36.3882L19.6971 36.8448L19.5174 37.2789L19.3228 37.713L19.1132 38.1247L18.8962 38.5289L18.6642 38.9181L18.4246 39.2998L18.1776 39.6591L17.9232 40.0034L17.6537 40.3327L17.3842 40.6546L17.0998 40.9539L16.8154 41.2309L16.516 41.5003L16.2241 41.7473L15.9172 41.9868L15.6103 42.1964L15.296 42.3985L14.9816 42.5782L14.6747 42.7353L14.3529 42.8775L14.0385 43.0048L13.7242 43.1096L13.4098 43.1994L13.0954 43.2668L12.7811 43.3191L12.4742 43.3566L12.1748 43.3715L11.8754 43.3641L11.576 43.3416L11.2916 43.3042L11.0072 43.2518L10.7302 43.1769L10.4683 43.0871L10.2063 42.9823L9.95931 42.8626L9.71979 42.7204L9.49525 42.5707L9.27819 42.3985L9.06862 42.2114L8.8815 42.0168L8.69437 41.7997L8.52971 41.5752L8.37253 41.3357L8.2378 41.0887L8.11056 40.8267L7.99829 40.5498L7.90098 40.2653L7.82614 39.9734L7.75877 39.674L7.71386 39.3597L7.68392 39.0378L7.66895 38.716L7.67644 38.3792L7.69889 38.0424L7.73632 37.698L7.78871 37.3463L7.86356 36.9945L7.95338 36.6352L8.06565 36.2759L8.19289 35.9167L8.3351 35.5574L8.49977 35.1981L8.67941 34.8314L8.8815 34.4721L9.09107 34.1128L9.3231 33.761L9.57758 33.4092L9.84704 33.0575L10.1315 32.7132L10.4309 32.3763L10.7452 32.047L11.0745 31.7177L11.4263 31.4033L11.7856 31.089L12.1598 30.7896L12.5491 30.4977L12.9607 30.2132L13.3724 29.9363L13.8065 29.6743L14.2481 29.4273L14.7047 29.1878L15.1687 28.9558L15.6403 28.7462L16.1268 28.5441L16.6208 28.3495L17.1223 28.1774L17.6387 28.0202L18.1552 27.8705L18.6791 27.7358L19.2031 27.6235L19.742 27.5187L20.2809 27.4364L20.8273 27.3615L21.3737 27.3091L21.9201 27.2717L22.4664 27.2418L23.0203 27.2343ZM23.0203 27.2343L23.5742 27.2418L24.1206 27.2717L24.667 27.3091L25.2134 27.3615L25.7598 27.4364L26.2987 27.5187L26.8376 27.6235L27.3615 27.7358L27.8929 27.8705L28.4094 28.0202L28.9184 28.1774L29.4198 28.3495L29.9138 28.5441L30.4003 28.7462L30.8794 28.9558L31.3434 29.1878L31.7925 29.4273L32.2341 29.6743L32.6683 29.9363L33.0874 30.2132L33.4916 30.4977L33.8808 30.7896L34.255 31.089L34.6218 31.4033L34.9661 31.7177L35.2954 32.047L35.6173 32.3763L35.9167 32.7132L36.2011 33.0575L36.4631 33.4092L36.7175 33.761L36.9496 34.1128L37.1666 34.4721L37.3612 34.8314L37.5409 35.1981L37.7055 35.5574L37.8477 35.9167L37.975 36.2759L38.0873 36.6352L38.1771 36.9945L38.2519 37.3463L38.3118 37.698L38.3492 38.0424L38.3717 38.3792V38.716L38.3567 39.0378L38.3268 39.3597L38.2819 39.674L38.2145 39.9734L38.1397 40.2653L38.0424 40.5498L37.9301 40.8267L37.8103 41.0887L37.6681 41.3357L37.5109 41.5752L37.3463 41.7997L37.1666 42.0168L36.972 42.2114L36.7624 42.3985L36.5454 42.5707L36.3208 42.7204L36.0813 42.8626L35.8343 42.9823L35.5724 43.0871L35.3104 43.1769L35.0335 43.2518L34.7565 43.3042L34.4646 43.3416L34.1727 43.3641L33.8733 43.3715L33.5664 43.3566L33.2596 43.3191L32.9452 43.2668L32.6383 43.1994L32.3165 43.1096L32.0021 43.0048L31.6877 42.8775L31.3734 42.7353L31.059 42.5782L30.7447 42.3985L30.4303 42.1964L30.1234 41.9868L29.824 41.7473L29.5246 41.5003L29.2252 41.2309L28.9408 40.9539L28.6639 40.6546L28.3869 40.3327L28.1175 40.0034L27.863 39.6591L27.616 39.2998L27.3765 38.9181L27.1445 38.5289L26.9274 38.1247L26.7178 37.713L26.5232 37.2789L26.3436 36.8448L26.1714 36.3882L26.0142 35.9316L25.8646 35.4526L25.7373 34.9736L25.6176 34.4871L25.5202 33.9856L25.4304 33.4766L25.3556 32.9676L25.3032 32.4512L25.2583 31.9273L25.2358 31.3958L25.2209 30.8644L25.2283 30.3255L25.2433 29.7941L25.2807 29.2552L25.3331 28.7088L25.408 28.1699L25.4903 27.631L25.5876 27.0921L25.7074 26.5532L25.8346 26.0217L25.9843 25.4903L26.149 24.9664L26.3286 24.4424L26.5157 23.926L26.7253 23.417L26.9498 22.9155L27.1819 22.4215L27.4289 21.935L27.6908 21.456L27.9678 20.9919L28.2522 20.5279L28.5516 20.0863L28.866 19.6447L29.1878 19.2255L29.5171 18.8139L29.8614 18.4097L30.2132 18.0279L30.5725 17.6537L30.9393 17.2944L31.3135 16.9576L31.6952 16.6283L32.0919 16.3139L32.4811 16.0145L32.8853 15.7376L33.2895 15.4681L33.6937 15.2211L34.1053 14.9891L34.517 14.772L34.9287 14.5774L35.3403 14.3978L35.7595 14.2331L36.1711 14.0834L36.5828 13.9562L36.9945 13.8439L37.3987 13.7541L37.8028 13.6718L38.207 13.6119L38.5962 13.567L38.9854 13.5445L39.3672 13.5371H39.7414L40.1082 13.567L40.4674 13.6044L40.8192 13.6568L41.156 13.7242L41.4854 13.814L41.8072 13.9113L42.1141 14.0236L42.406 14.1508L42.6904 14.293L42.9599 14.4502L43.2144 14.6149L43.4539 14.7945L43.6784 14.9816L43.888 15.1837L44.0826 15.3933L44.2622 15.6103L44.4269 15.8424L44.5766 16.0819L44.7038 16.3289L44.8161 16.5759L44.9059 16.8379L44.9808 17.0998L45.0407 17.3693L45.0856 17.6462L45.1005 17.9232L45.108 18.2076L45.0931 18.4845L45.0556 18.7764L45.0032 19.0608L44.9359 19.3453L44.8461 19.6297L44.7338 19.9141L44.6065 20.1985L44.4643 20.4755L44.2997 20.7524L44.12 21.0294L43.9179 21.2913L43.7009 21.5533L43.4688 21.8153L43.2144 22.0623L42.9524 22.3018L42.668 22.5413L42.3686 22.7658L42.0542 22.9829L41.7249 23.1925L41.3806 23.3871L41.0213 23.5742L40.6471 23.7463L40.2653 23.911L39.8686 24.0607L39.457 24.1954L39.0378 24.3227L38.6037 24.435L38.1621 24.5323L37.713 24.6146L37.249 24.6819L36.7849 24.7343L36.3059 24.7718L35.8268 24.7942L35.3403 24.8092L34.8463 24.7942L34.3449 24.7718L33.8434 24.7343L33.3419 24.6745L32.8329 24.5996L32.3165 24.5098L31.8075 24.405L31.2985 24.2853L30.7896 24.1505L30.2806 23.9933L29.7716 23.8212L29.2627 23.6341L28.7612 23.4395L28.2672 23.2149L27.7732 22.9829L27.2867 22.7359L26.8002 22.4739L26.3286 22.197L25.8646 21.9126L25.4005 21.6057L24.9514 21.2913L24.5098 20.962L24.0832 20.6177L23.664 20.2584L23.2523 19.8991L22.8557 19.5174L22.4664 19.1357L22.0922 18.739L21.7329 18.3273L21.3886 17.9157L21.0518 17.489L20.7374 17.0624L20.4306 16.6208L20.1461 16.1792L19.8692 15.7301L19.6072 15.281L19.3677 14.8244L19.1432 14.3604L18.9336 13.8963L18.739 13.4323L18.5594 12.9682L18.4022 12.4967L18.2525 12.0326L18.1327 11.5685L18.0205 11.1045L17.9232 10.6404L17.8483 10.1839L17.7884 9.72728L17.7435 9.27819L17.7136 8.8291L17.7061 8.39498V7.96086L17.7286 7.53423L17.766 7.12256L17.8184 6.7109L17.8857 6.3142L17.9606 5.92499L18.0579 5.55075L18.1702 5.18399L18.2899 4.82472L18.4246 4.48791L18.5743 4.15857L18.7315 3.84421L18.9037 3.53733L19.0908 3.25291L19.2779 2.98346L19.4875 2.72149L19.6971 2.48197L19.9141 2.25743L20.1461 2.04786L20.3857 1.86073L20.6252 1.68858L20.8797 1.5314L21.1341 1.38919L21.3961 1.26943L21.6581 1.17213L21.9275 1.08231L22.197 1.02244L22.4739 0.970041L22.7434 0.947587L23.0203 0.932617L23.2973 0.947587L23.5742 0.970041L23.8436 1.02244L24.1131 1.08231L24.3826 1.17213L24.652 1.26943L24.9065 1.38919L25.161 1.5314L25.4155 1.68858L25.655 1.86073L25.8945 2.04786L26.1265 2.25743L26.3436 2.48197L26.5606 2.72149L26.7627 2.98346L26.9573 3.25291L27.137 3.53733L27.3091 3.84421L27.4663 4.15857L27.616 4.48791L27.7507 4.82472L27.8705 5.18399L27.9828 5.55075L28.0801 5.92499L28.1624 6.3142L28.2223 6.7109L28.2747 7.12256L28.3121 7.53423L28.3345 7.96086V8.39498L28.3271 8.8291L28.2971 9.27819L28.2522 9.72728L28.1923 10.1839L28.1175 10.6404L28.0202 11.1045L27.9154 11.5685L27.7881 12.0326L27.6385 12.4967L27.4813 12.9682L27.3016 13.4323L27.107 13.8963L26.8975 14.3604L26.6729 14.8244L26.4334 15.281L26.1714 15.7301L25.902 16.1792L25.6101 16.6208L25.3032 17.0624L24.9888 17.489L24.652 17.9157L24.3077 18.3273L23.9484 18.739L23.5742 19.1357L23.185 19.5174L22.7883 19.8991L22.3841 20.2584L21.9575 20.6177L21.5308 20.962L21.0892 21.2913L20.6401 21.6057L20.1761 21.9126L19.712 22.197L19.2405 22.4739L18.754 22.7359L18.2675 22.9829L17.7735 23.2149L17.2795 23.4395L16.778 23.6341L16.269 23.8212L15.7675 23.9933L15.2586 24.1505L14.7421 24.2853L14.2331 24.405L13.7242 24.5098L13.2152 24.5996L12.7062 24.6745L12.1973 24.7343L11.6958 24.7718L11.1943 24.7942L10.7003 24.8092L10.2138 24.7942L9.73476 24.7718L9.25574 24.7343L8.79168 24.6819L8.32762 24.6146L7.87853 24.5323L7.43692 24.435L7.00281 24.3227L6.58366 24.1954L6.17199 24.0607L5.7753 23.911L5.39357 23.7463L5.01933 23.5742L4.66006 23.3871L4.31576 23.1925L3.98642 22.9829L3.67206 22.7658L3.37267 22.5413L3.08825 22.3018L2.82628 22.0623L2.57179 21.8153L2.33976 21.5533L2.1227 21.2913L1.92061 21.0294L1.74098 20.7524L1.57631 20.4755L1.4341 20.1985L1.30686 19.9141L1.19459 19.6297L1.11225 19.3453L1.0374 19.0608L0.985011 18.7764L0.947587 18.4845L0.932617 18.2076L0.940102 17.9232L0.962556 17.6462L0.999981 17.3693L1.05986 17.0998L1.13471 16.8379L1.22453 16.5759L1.3368 16.3289L1.47152 16.0819L1.61374 15.8424L1.7784 15.6103L1.95804 15.3933L2.15264 15.1837L2.36222 14.9816L2.58676 14.7945L2.82628 14.6149L3.08076 14.4502L3.35021 14.293L3.63464 14.1508L3.92654 14.0236L4.23342 13.9113L4.55527 13.814L4.8846 13.7242L5.22142 13.6568L5.57321 13.6044L5.93248 13.567L6.29923 13.5371H6.67347L7.0552 13.5445L7.44441 13.567L7.84111 13.6119L8.2378 13.6718L8.64198 13.7541L9.04616 13.8439L9.45783 13.9562L9.86949 14.0834L10.2812 14.2331L10.7003 14.3978L11.112 14.5774L11.5236 14.772L11.9428 14.9891L12.347 15.2211L12.7586 15.4681L13.1628 15.7376L13.5595 16.0145L13.9562 16.3139L14.3454 16.6283L14.7271 16.9576L15.1014 17.2944L15.4681 17.6537L15.8274 18.0279L16.1792 18.4097L16.5235 18.8139L16.8528 19.2255L17.1747 19.6447L17.489 20.0863L17.7884 20.5279L18.0729 20.9919L18.3498 21.456L18.6118 21.935L18.8588 22.4215L19.0983 22.9155L19.3153 23.417L19.5249 23.926L19.7195 24.4424L19.8917 24.9664L20.0563 25.4903L20.206 26.0217L20.3333 26.5532L20.453 27.0921L20.5503 27.631L20.6401 28.1699L20.7075 28.7088L20.7599 29.2552L20.7973 29.7941L20.8198 30.3255V30.8644L20.8123 31.3958L20.7824 31.9273L20.7374 32.4512L20.6851 32.9676L20.6102 33.4766L20.5204 33.9856L20.4231 34.4871L20.3033 34.9736L20.1761 35.4526L20.0264 35.9316L19.8692 36.3882L19.6971 36.8448L19.5174 37.2789L19.3228 37.713L19.1132 38.1247L18.8962 38.5289L18.6642 38.9181L18.4246 39.2998L18.1776 39.6591L17.9232 40.0034L17.6537 40.3327L17.3842 40.6546L17.0998 40.9539L16.8154 41.2309L16.516 41.5003L16.2241 41.7473L15.9172 41.9868L15.6103 42.1964L15.296 42.3985L14.9816 42.5782L14.6747 42.7353L14.3529 42.8775L14.0385 43.0048L13.7242 43.1096L13.4098 43.1994L13.0954 43.2668L12.7811 43.3191L12.4742 43.3566L12.1748 43.3715L11.8754 43.3641L11.576 43.3416L11.2916 43.3042L11.0072 43.2518L10.7302 43.1769L10.4683 43.0871L10.2063 42.9823L9.95931 42.8626L9.71979 42.7204L9.49525 42.5707L9.27819 42.3985L9.06862 42.2114L8.8815 42.0168L8.69437 41.7997L8.52971 41.5752L8.37253 41.3357L8.2378 41.0887L8.11056 40.8267L7.99829 40.5498L7.90098 40.2653L7.82614 39.9734L7.75877 39.674L7.71386 39.3597L7.68392 39.0378L7.66895 38.716L7.67644 38.3792L7.69889 38.0424L7.73632 37.698L7.78871 37.3463L7.86356 36.9945L7.95338 36.6352L8.06565 36.2759L8.19289 35.9167L8.3351 35.5574L8.49977 35.1981L8.67941 34.8314L8.8815 34.4721L9.09107 34.1128L9.3231 33.761L9.57758 33.4092L9.84704 33.0575L10.1315 32.7132L10.4309 32.3763L10.7452 32.047L11.0745 31.7177L11.4263 31.4033L11.7856 31.089L12.1598 30.7896L12.5491 30.4977L12.9607 30.2132L13.3724 29.9363L13.8065 29.6743L14.2481 29.4273L14.7047 29.1878L15.1687 28.9558L15.6403 28.7462L16.1268 28.5441L16.6208 28.3495L17.1223 28.1774L17.6387 28.0202L18.1552 27.8705L18.6791 27.7358L19.2031 27.6235L19.742 27.5187L20.2809 27.4364L20.8273 27.3615L21.3737 27.3091L21.9201 27.2717L22.4664 27.2418L23.0203 27.2343ZM23.0203 27.2343L23.5742 27.2418L24.1206 27.2717L24.667 27.3091L25.2134 27.3615L25.7598 27.4364L26.2987 27.5187L26.8376 27.6235L27.3615 27.7358L27.8929 27.8705L28.4094 28.0202L28.9184 28.1774L29.4198 28.3495L29.9138 28.5441L30.4003 28.7462L30.8794 28.9558L31.3434 29.1878L31.7925 29.4273L32.2341 29.6743L32.6683 29.9363L33.0874 30.2132L33.4916 30.4977L33.8808 30.7896L34.255 31.089L34.6218 31.4033L34.9661 31.7177L35.2954 32.047L35.6173 32.3763L35.9167 32.7132L36.2011 33.0575L36.4631 33.4092L36.7175 33.761L36.9496 34.1128L37.1666 34.4721L37.3612 34.8314L37.5409 35.1981L37.7055 35.5574L37.8477 35.9167L37.975 36.2759L38.0873 36.6352L38.1771 36.9945L38.2519 37.3463L38.3118 37.698L38.3492 38.0424L38.3717 38.3792V38.716L38.3567 39.0378L38.3268 39.3597L38.2819 39.674L38.2145 39.9734L38.1397 40.2653L38.0424 40.5498L37.9301 40.8267L37.8103 41.0887L37.6681 41.3357L37.5109 41.5752L37.3463 41.7997L37.1666 42.0168L36.972 42.2114L36.7624 42.3985L36.5454 42.5707L36.3208 42.7204L36.0813 42.8626L35.8343 42.9823L35.5724 43.0871L35.3104 43.1769L35.0335 43.2518L34.7565 43.3042L34.4646 43.3416L34.1727 43.3641L33.8733 43.3715L33.5664 43.3566L33.2596 43.3191L32.9452 43.2668L32.6383 43.1994L32.3165 43.1096L32.0021 43.0048L31.6877 42.8775L31.3734 42.7353L31.059 42.5782L30.7447 42.3985L30.4303 42.1964L30.1234 41.9868L29.824 41.7473L29.5246 41.5003L29.2252 41.2309L28.9408 40.9539L28.6639 40.6546L28.3869 40.3327L28.1175 40.0034L27.863 39.6591L27.616 39.2998L27.3765 38.9181L27.1445 38.5289L26.9274 38.1247L26.7178 37.713L26.5232 37.2789L26.3436 36.8448L26.1714 36.3882L26.0142 35.9316L25.8646 35.4526L25.7373 34.9736L25.6176 34.4871L25.5202 33.9856L25.4304 33.4766L25.3556 32.9676L25.3032 32.4512L25.2583 31.9273L25.2358 31.3958L25.2209 30.8644L25.2283 30.3255L25.2433 29.7941L25.2807 29.2552L25.3331 28.7088L25.408 28.1699L25.4903 27.631L25.5876 27.0921L25.7074 26.5532L25.8346 26.0217L25.9843 25.4903L26.149 24.9664L26.3286 24.4424L26.5157 23.926L26.7253 23.417L26.9498 22.9155L27.1819 22.4215L27.4289 21.935L27.6908 21.456L27.9678 20.9919L28.2522 20.5279L28.5516 20.0863L28.866 19.6447L29.1878 19.2255L29.5171 18.8139L29.8614 18.4097L30.2132 18.0279L30.5725 17.6537L30.9393 17.2944L31.3135 16.9576L31.6952 16.6283L32.0919 16.3139L32.4811 16.0145L32.8853 15.7376L33.2895 15.4681L33.6937 15.2211L34.1053 14.9891L34.517 14.772L34.9287 14.5774L35.3403 14.3978L35.7595 14.2331L36.1711 14.0834L36.5828 13.9562L36.9945 13.8439L37.3987 13.7541L37.8028 13.6718L38.207 13.6119L38.5962 13.567L38.9854 13.5445L39.3672 13.5371H39.7414L40.1082 13.567L40.4674 13.6044L40.8192 13.6568L41.156 13.7242L41.4854 13.814L41.8072 13.9113L42.1141 14.0236L42.406 14.1508L42.6904 14.293L42.9599 14.4502L43.2144 14.6149L43.4539 14.7945L43.6784 14.9816L43.888 15.1837L44.0826 15.3933L44.2622 15.6103L44.4269 15.8424L44.5766 16.0819L44.7038 16.3289L44.8161 16.5759L44.9059 16.8379L44.9808 17.0998L45.0407 17.3693L45.0856 17.6462L45.1005 17.9232L45.108 18.2076L45.0931 18.4845L45.0556 18.7764L45.0032 19.0608L44.9359 19.3453L44.8461 19.6297L44.7338 19.9141L44.6065 20.1985L44.4643 20.4755L44.2997 20.7524L44.12 21.0294L43.9179 21.2913L43.7009 21.5533L43.4688 21.8153L43.2144 22.0623L42.9524 22.3018L42.668 22.5413L42.3686 22.7658L42.0542 22.9829L41.7249 23.1925L41.3806 23.3871L41.0213 23.5742L40.6471 23.7463L40.2653 23.911L39.8686 24.0607L39.457 24.1954L39.0378 24.3227L38.6037 24.435L38.1621 24.5323L37.713 24.6146L37.249 24.6819L36.7849 24.7343L36.3059 24.7718L35.8268 24.7942L35.3403 24.8092L34.8463 24.7942L34.3449 24.7718L33.8434 24.7343L33.3419 24.6745L32.8329 24.5996L32.3165 24.5098L31.8075 24.405L31.2985 24.2853L30.7896 24.1505L30.2806 23.9933L29.7716 23.8212L29.2627 23.6341L28.7612 23.4395L28.2672 23.2149L27.7732 22.9829L27.2867 22.7359L26.8002 22.4739L26.3286 22.197L25.8646 21.9126L25.4005 21.6057L24.9514 21.2913L24.5098 20.962L24.0832 20.6177L23.664 20.2584L23.2523 19.8991L22.8557 19.5174L22.4664 19.1357L22.0922 18.739L21.7329 18.3273L21.3886 17.9157L21.0518 17.489L20.7374 17.0624L20.4306 16.6208L20.1461 16.1792L19.8692 15.7301L19.6072 15.281L19.3677 14.8244L19.1432 14.3604L18.9336 13.8963L18.739 13.4323L18.5594 12.9682L18.4022 12.4967L18.2525 12.0326L18.1327 11.5685L18.0205 11.1045L17.9232 10.6404L17.8483 10.1839L17.7884 9.72728L17.7435 9.27819L17.7136 8.8291L17.7061 8.39498V7.96086L17.7286 7.53423L17.766 7.12256L17.8184 6.7109L17.8857 6.3142L17.9606 5.92499L18.0579 5.55075L18.1702 5.18399L18.2899 4.82472L18.4246 4.48791L18.5743 4.15857L18.7315 3.84421L18.9037 3.53733L19.0908 3.25291L19.2779 2.98346L19.4875 2.72149L19.6971 2.48197L19.9141 2.25743L20.1461 2.04786L20.3857 1.86073L20.6252 1.68858L20.8797 1.5314L21.1341 1.38919L21.3961 1.26943L21.6581 1.17213L21.9275 1.08231L22.197 1.02244L22.4739 0.970041L22.7434 0.947587L23.0203 0.932617L23.2973 0.947587L23.5742 0.970041L23.8436 1.02244L24.1131 1.08231L24.3826 1.17213L24.652 1.26943L24.9065 1.38919L25.161 1.5314L25.4155 1.68858L25.655 1.86073L25.8945 2.04786L26.1265 2.25743L26.3436 2.48197L26.5606 2.72149L26.7627 2.98346L26.9573 3.25291L27.137 3.53733L27.3091 3.84421L27.4663 4.15857L27.616 4.48791L27.7507 4.82472L27.8705 5.18399L27.9828 5.55075L28.0801 5.92499L28.1624 6.3142L28.2223 6.7109L28.2747 7.12256L28.3121 7.53423L28.3345 7.96086V8.39498L28.3271 8.8291L28.2971 9.27819L28.2522 9.72728L28.1923 10.1839L28.1175 10.6404L28.0202 11.1045L27.9154 11.5685L27.7881 12.0326L27.6385 12.4967L27.4813 12.9682L27.3016 13.4323L27.107 13.8963L26.8975 14.3604L26.6729 14.8244L26.4334 15.281L26.1714 15.7301L25.902 16.1792L25.6101 16.6208L25.3032 17.0624L24.9888 17.489L24.652 17.9157L24.3077 18.3273L23.9484 18.739L23.5742 19.1357L23.185 19.5174L22.7883 19.8991L22.3841 20.2584L21.9575 20.6177L21.5308 20.962L21.0892 21.2913L20.6401 21.6057L20.1761 21.9126L19.712 22.197L19.2405 22.4739L18.754 22.7359L18.2675 22.9829L17.7735 23.2149L17.2795 23.4395L16.778 23.6341L16.269 23.8212L15.7675 23.9933L15.2586 24.1505L14.7421 24.2853L14.2331 24.405L13.7242 24.5098L13.2152 24.5996L12.7062 24.6745L12.1973 24.7343L11.6958 24.7718L11.1943 24.7942L10.7003 24.8092L10.2138 24.7942L9.73476 24.7718L9.25574 24.7343L8.79168 24.6819L8.32762 24.6146L7.87853 24.5323L7.43692 24.435L7.00281 24.3227L6.58366 24.1954L6.17199 24.0607L5.7753 23.911L5.39357 23.7463L5.01933 23.5742L4.66006 23.3871L4.31576 23.1925L3.98642 22.9829L3.67206 22.7658L3.37267 22.5413L3.08825 22.3018L2.82628 22.0623L2.57179 21.8153L2.33976 21.5533L2.1227 21.2913L1.92061 21.0294L1.74098 20.7524L1.57631 20.4755L1.4341 20.1985L1.30686 19.9141L1.19459 19.6297L1.11225 19.3453L1.0374 19.0608L0.985011 18.7764L0.947587 18.4845L0.932617 18.2076L0.940102 17.9232L0.962556 17.6462L0.999981 17.3693L1.05986 17.0998L1.13471 16.8379L1.22453 16.5759L1.3368 16.3289L1.47152 16.0819L1.61374 15.8424L1.7784 15.6103L1.95804 15.3933L2.15264 15.1837L2.36222 14.9816L2.58676 14.7945L2.82628 14.6149L3.08076 14.4502L3.35021 14.293L3.63464 14.1508L3.92654 14.0236L4.23342 13.9113L4.55527 13.814L4.8846 13.7242L5.22142 13.6568L5.57321 13.6044L5.93248 13.567L6.29923 13.5371H6.67347L7.0552 13.5445L7.44441 13.567L7.84111 13.6119L8.2378 13.6718L8.64198 13.7541L9.04616 13.8439L9.45783 13.9562L9.86949 14.0834L10.2812 14.2331L10.7003 14.3978L11.112 14.5774L11.5236 14.772L11.9428 14.9891L12.347 15.2211L12.7586 15.4681L13.1628 15.7376L13.5595 16.0145L13.9562 16.3139L14.3454 16.6283L14.7271 16.9576L15.1014 17.2944L15.4681 17.6537L15.8274 18.0279L16.1792 18.4097L16.5235 18.8139L16.8528 19.2255L17.1747 19.6447L17.489 20.0863L17.7884 20.5279L18.0729 20.9919L18.3498 21.456L18.6118 21.935L18.8588 22.4215L19.0983 22.9155L19.3153 23.417L19.5249 23.926L19.7195 24.4424L19.8917 24.9664L20.0563 25.4903L20.206 26.0217L20.3333 26.5532L20.453 27.0921L20.5503 27.631L20.6401 28.1699L20.7075 28.7088L20.7599 29.2552L20.7973 29.7941L20.8198 30.3255V30.8644L20.8123 31.3958L20.7824 31.9273L20.7374 32.4512L20.6851 32.9676L20.6102 33.4766L20.5204 33.9856L20.4231 34.4871L20.3033 34.9736L20.1761 35.4526L20.0264 35.9316L19.8692 36.3882L19.6971 36.8448L19.5174 37.2789L19.3228 37.713L19.1132 38.1247L18.8962 38.5289L18.6642 38.9181L18.4246 39.2998L18.1776 39.6591L17.9232 40.0034L17.6537 40.3327L17.3842 40.6546L17.0998 40.9539L16.8154 41.2309L16.516 41.5003L16.2241 41.7473L15.9172 41.9868L15.6103 42.1964L15.296 42.3985L14.9816 42.5782L14.6747 42.7353L14.3529 42.8775L14.0385 43.0048L13.7242 43.1096L13.4098 43.1994L13.0954 43.2668L12.7811 43.3191L12.4742 43.3566L12.1748 43.3715L11.8754 43.3641L11.576 43.3416L11.2916 43.3042L11.0072 43.2518L10.7302 43.1769L10.4683 43.0871L10.2063 42.9823L9.95931 42.8626L9.71979 42.7204L9.49525 42.5707L9.27819 42.3985L9.06862 42.2114L8.8815 42.0168L8.69437 41.7997L8.52971 41.5752L8.37253 41.3357L8.2378 41.0887L8.11056 40.8267L7.99829 40.5498L7.90098 40.2653L7.82614 39.9734L7.75877 39.674L7.71386 39.3597L7.68392 39.0378L7.66895 38.716L7.67644 38.3792L7.69889 38.0424L7.73632 37.698L7.78871 37.3463L7.86356 36.9945L7.95338 36.6352L8.06565 36.2759L8.19289 35.9167L8.3351 35.5574L8.49977 35.1981L8.67941 34.8314L8.8815 34.4721L9.09107 34.1128L9.3231 33.761L9.57758 33.4092L9.84704 33.0575L10.1315 32.7132L10.4309 32.3763L10.7452 32.047L11.0745 31.7177L11.4263 31.4033L11.7856 31.089L12.1598 30.7896L12.5491 30.4977L12.9607 30.2132L13.3724 29.9363L13.8065 29.6743L14.2481 29.4273L14.7047 29.1878L15.1687 28.9558L15.6403 28.7462L16.1268 28.5441L16.6208 28.3495L17.1223 28.1774L17.6387 28.0202L18.1552 27.8705L18.6791 27.7358L19.2031 27.6235L19.742 27.5187L20.2809 27.4364L20.8273 27.3615L21.3737 27.3091L21.9201 27.2717L22.4664 27.2418L23.0203 27.2343ZM23.0203 27.2343L23.5742 27.2418L24.1206 27.2717L24.667 27.3091L25.2134 27.3615L25.7598 27.4364L26.2987 27.5187L26.8376 27.6235L27.3615 27.7358L27.8929 27.8705L28.4094 28.0202L28.9184 28.1774L29.4198 28.3495L29.9138 28.5441L30.4003 28.7462L30.8794 28.9558L31.3434 29.1878L31.7925 29.4273L32.2341 29.6743L32.6683 29.9363L33.0874 30.2132L33.4916 30.4977L33.8808 30.7896L34.255 31.089L34.6218 31.4033L34.9661 31.7177L35.2954 32.047L35.6173 32.3763L35.9167 32.7132L36.2011 33.0575L36.4631 33.4092L36.7175 33.761L36.9496 34.1128L37.1666 34.4721L37.3612 34.8314L37.5409 35.1981L37.7055 35.5574L37.8477 35.9167L37.975 36.2759L38.0873 36.6352L38.1771 36.9945L38.2519 37.3463L38.3118 37.698L38.3492 38.0424L38.3717 38.3792V38.716L38.3567 39.0378L38.3268 39.3597L38.2819 39.674L38.2145 39.9734L38.1397 40.2653L38.0424 40.5498L37.9301 40.8267L37.8103 41.0887L37.6681 41.3357L37.5109 41.5752L37.3463 41.7997L37.1666 42.0168L36.972 42.2114L36.7624 42.3985L36.5454 42.5707L36.3208 42.7204L36.0813 42.8626L35.8343 42.9823L35.5724 43.0871L35.3104 43.1769L35.0335 43.2518L34.7565 43.3042L34.4646 43.3416L34.1727 43.3641L33.8733 43.3715L33.5664 43.3566L33.2596 43.3191L32.9452 43.2668L32.6383 43.1994L32.3165 43.1096L32.0021 43.0048L31.6877 42.8775L31.3734 42.7353L31.059 42.5782L30.7447 42.3985L30.4303 42.1964L30.1234 41.9868L29.824 41.7473L29.5246 41.5003L29.2252 41.2309L28.9408 40.9539L28.6639 40.6546L28.3869 40.3327L28.1175 40.0034L27.863 39.6591L27.616 39.2998L27.3765 38.9181L27.1445 38.5289L26.9274 38.1247L26.7178 37.713L26.5232 37.2789L26.3436 36.8448L26.1714 36.3882L26.0142 35.9316L25.8646 35.4526L25.7373 34.9736L25.6176 34.4871L25.5202 33.9856L25.4304 33.4766L25.3556 32.9676L25.3032 32.4512L25.2583 31.9273L25.2358 31.3958L25.2209 30.8644L25.2283 30.3255L25.2433 29.7941L25.2807 29.2552L25.3331 28.7088L25.408 28.1699L25.4903 27.631L25.5876 27.0921L25.7074 26.5532L25.8346 26.0217L25.9843 25.4903L26.149 24.9664L26.3286 24.4424L26.5157 23.926L26.7253 23.417L26.9498 22.9155L27.1819 22.4215L27.4289 21.935L27.6908 21.456L27.9678 20.9919L28.2522 20.5279L28.5516 20.0863L28.866 19.6447L29.1878 19.2255L29.5171 18.8139L29.8614 18.4097L30.2132 18.0279L30.5725 17.6537L30.9393 17.2944L31.3135 16.9576L31.6952 16.6283L32.0919 16.3139L32.4811 16.0145L32.8853 15.7376L33.2895 15.4681L33.6937 15.2211L34.1053 14.9891L34.517 14.772L34.9287 14.5774L35.3403 14.3978L35.7595 14.2331L36.1711 14.0834L36.5828 13.9562L36.9945 13.8439L37.3987 13.7541L37.8028 13.6718L38.207 13.6119L38.5962 13.567L38.9854 13.5445L39.3672 13.5371H39.7414L40.1082 13.567L40.4674 13.6044L40.8192 13.6568L41.156 13.7242L41.4854 13.814L41.8072 13.9113L42.1141 14.0236L42.406 14.1508L42.6904 14.293L42.9599 14.4502L43.2144 14.6149L43.4539 14.7945L43.6784 14.9816L43.888 15.1837L44.0826 15.3933L44.2622 15.6103L44.4269 15.8424L44.5766 16.0819L44.7038 16.3289L44.8161 16.5759L44.9059 16.8379L44.9808 17.0998L45.0407 17.3693L45.0856 17.6462L45.1005 17.9232L45.108 18.2076L45.0931 18.4845L45.0556 18.7764L45.0032 19.0608L44.9359 19.3453L44.8461 19.6297L44.7338 19.9141L44.6065 20.1985L44.4643 20.4755L44.2997 20.7524L44.12 21.0294L43.9179 21.2913L43.7009 21.5533L43.4688 21.8153L43.2144 22.0623L42.9524 22.3018L42.668 22.5413L42.3686 22.7658L42.0542 22.9829L41.7249 23.1925L41.3806 23.3871L41.0213 23.5742L40.6471 23.7463L40.2653 23.911L39.8686 24.0607L39.457 24.1954L39.0378 24.3227L38.6037 24.435L38.1621 24.5323L37.713 24.6146L37.249 24.6819L36.7849 24.7343L36.3059 24.7718L35.8268 24.7942L35.3403 24.8092L34.8463 24.7942L34.3449 24.7718L33.8434 24.7343L33.3419 24.6745L32.8329 24.5996L32.3165 24.5098L31.8075 24.405L31.2985 24.2853L30.7896 24.1505L30.2806 23.9933L29.7716 23.8212L29.2627 23.6341L28.7612 23.4395L28.2672 23.2149L27.7732 22.9829L27.2867 22.7359L26.8002 22.4739L26.3286 22.197L25.8646 21.9126L25.4005 21.6057L24.9514 21.2913L24.5098 20.962L24.0832 20.6177L23.664 20.2584L23.2523 19.8991L22.8557 19.5174L22.4664 19.1357L22.0922 18.739L21.7329 18.3273L21.3886 17.9157L21.0518 17.489L20.7374 17.0624L20.4306 16.6208L20.1461 16.1792L19.8692 15.7301L19.6072 15.281L19.3677 14.8244L19.1432 14.3604L18.9336 13.8963L18.739 13.4323L18.5594 12.9682L18.4022 12.4967L18.2525 12.0326L18.1327 11.5685L18.0205 11.1045L17.9232 10.6404L17.8483 10.1839L17.7884 9.72728L17.7435 9.27819L17.7136 8.8291L17.7061 8.39498V7.96086L17.7286 7.53423L17.766 7.12256L17.8184 6.7109L17.8857 6.3142L17.9606 5.92499L18.0579 5.55075L18.1702 5.18399L18.2899 4.82472L18.4246 4.48791L18.5743 4.15857L18.7315 3.84421L18.9037 3.53733L19.0908 3.25291L19.2779 2.98346L19.4875 2.72149L19.6971 2.48197L19.9141 2.25743L20.1461 2.04786L20.3857 1.86073L20.6252 1.68858L20.8797 1.5314L21.1341 1.38919L21.3961 1.26943L21.6581 1.17213L21.9275 1.08231L22.197 1.02244L22.4739 0.970041L22.7434 0.947587L23.0203 0.932617L23.2973 0.947587L23.5742 0.970041L23.8436 1.02244L24.1131 1.08231L24.3826 1.17213L24.652 1.26943L24.9065 1.38919L25.161 1.5314L25.4155 1.68858L25.655 1.86073L25.8945 2.04786L26.1265 2.25743L26.3436 2.48197L26.5606 2.72149L26.7627 2.98346L26.9573 3.25291L27.137 3.53733L27.3091 3.84421L27.4663 4.15857L27.616 4.48791L27.7507 4.82472L27.8705 5.18399L27.9828 5.55075L28.0801 5.92499L28.1624 6.3142L28.2223 6.7109L28.2747 7.12256L28.3121 7.53423L28.3345 7.96086V8.39498L28.3271 8.8291L28.2971 9.27819L28.2522 9.72728L28.1923 10.1839L28.1175 10.6404L28.0202 11.1045L27.9154 11.5685L27.7881 12.0326L27.6385 12.4967L27.4813 12.9682L27.3016 13.4323L27.107 13.8963L26.8975 14.3604L26.6729 14.8244L26.4334 15.281L26.1714 15.7301L25.902 16.1792L25.6101 16.6208L25.3032 17.0624L24.9888 17.489L24.652 17.9157L24.3077 18.3273L23.9484 18.739L23.5742 19.1357L23.185 19.5174L22.7883 19.8991L22.3841 20.2584L21.9575 20.6177L21.5308 20.962L21.0892 21.2913L20.6401 21.6057L20.1761 21.9126L19.712 22.197L19.2405 22.4739L18.754 22.7359L18.2675 22.9829L17.7735 23.2149L17.2795 23.4395L16.778 23.6341L16.269 23.8212L15.7675 23.9933L15.2586 24.1505L14.7421 24.2853L14.2331 24.405L13.7242 24.5098L13.2152 24.5996L12.7062 24.6745L12.1973 24.7343L11.6958 24.7718L11.1943 24.7942L10.7003 24.8092L10.2138 24.7942L9.73476 24.7718L9.25574 24.7343L8.79168 24.6819L8.32762 24.6146L7.87853 24.5323L7.43692 24.435L7.00281 24.3227L6.58366 24.1954L6.17199 24.0607L5.7753 23.911L5.39357 23.7463L5.01933 23.5742L4.66006 23.3871L4.31576 23.1925L3.98642 22.9829L3.67206 22.7658L3.37267 22.5413L3.08825 22.3018L2.82628 22.0623L2.57179 21.8153L2.33976 21.5533L2.1227 21.2913L1.92061 21.0294L1.74098 20.7524L1.57631 20.4755L1.4341 20.1985L1.30686 19.9141L1.19459 19.6297L1.11225 19.3453L1.0374 19.0608L0.985011 18.7764L0.947587 18.4845L0.932617 18.2076L0.940102 17.9232L0.962556 17.6462L0.999981 17.3693L1.05986 17.0998L1.13471 16.8379L1.22453 16.5759L1.3368 16.3289L1.47152 16.0819L1.61374 15.8424L1.7784 15.6103L1.95804 15.3933L2.15264 15.1837L2.36222 14.9816L2.58676 14.7945L2.82628 14.6149L3.08076 14.4502L3.35021 14.293L3.63464 14.1508L3.92654 14.0236L4.23342 13.9113L4.55527 13.814L4.8846 13.7242L5.22142 13.6568L5.57321 13.6044L5.93248 13.567L6.29923 13.5371H6.67347L7.0552 13.5445L7.44441 13.567L7.84111 13.6119L8.2378 13.6718L8.64198 13.7541L9.04616 13.8439L9.45783 13.9562L9.86949 14.0834L10.2812 14.2331L10.7003 14.3978L11.112 14.5774L11.5236 14.772L11.9428 14.9891L12.347 15.2211L12.7586 15.4681L13.1628 15.7376L13.5595 16.0145L13.9562 16.3139L14.3454 16.6283L14.7271 16.9576L15.1014 17.2944L15.4681 17.6537L15.8274 18.0279L16.1792 18.4097L16.5235 18.8139L16.8528 19.2255L17.1747 19.6447L17.489 20.0863L17.7884 20.5279L18.0729 20.9919L18.3498 21.456L18.6118 21.935L18.8588 22.4215L19.0983 22.9155L19.3153 23.417L19.5249 23.926L19.7195 24.4424L19.8917 24.9664L20.0563 25.4903L20.206 26.0217L20.3333 26.5532L20.453 27.0921L20.5503 27.631L20.6401 28.1699L20.7075 28.7088L20.7599 29.2552L20.7973 29.7941L20.8198 30.3255V30.8644L20.8123 31.3958L20.7824 31.9273L20.7374 32.4512L20.6851 32.9676L20.6102 33.4766L20.5204 33.9856L20.4231 34.4871L20.3033 34.9736L20.1761 35.4526L20.0264 35.9316L19.8692 36.3882L19.6971 36.8448L19.5174 37.2789L19.3228 37.713L19.1132 38.1247L18.8962 38.5289L18.6642 38.9181L18.4246 39.2998L18.1776 39.6591L17.9232 40.0034L17.6537 40.3327L17.3842 40.6546L17.0998 40.9539L16.8154 41.2309L16.516 41.5003L16.2241 41.7473L15.9172 41.9868L15.6103 42.1964L15.296 42.3985L14.9816 42.5782L14.6747 42.7353L14.3529 42.8775L14.0385 43.0048L13.7242 43.1096L13.4098 43.1994L13.0954 43.2668L12.7811 43.3191L12.4742 43.3566L12.1748 43.3715L11.8754 43.3641L11.576 43.3416L11.2916 43.3042L11.0072 43.2518L10.7302 43.1769L10.4683 43.0871L10.2063 42.9823L9.95931 42.8626L9.71979 42.7204L9.49525 42.5707L9.27819 42.3985L9.06862 42.2114L8.8815 42.0168L8.69437 41.7997L8.52971 41.5752L8.37253 41.3357L8.2378 41.0887L8.11056 40.8267L7.99829 40.5498L7.90098 40.2653L7.82614 39.9734L7.75877 39.674L7.71386 39.3597L7.68392 39.0378L7.66895 38.716L7.67644 38.3792L7.69889 38.0424L7.73632 37.698L7.78871 37.3463L7.86356 36.9945L7.95338 36.6352L8.06565 36.2759L8.19289 35.9167L8.3351 35.5574L8.49977 35.1981L8.67941 34.8314L8.8815 34.4721L9.09107 34.1128L9.3231 33.761L9.57758 33.4092L9.84704 33.0575L10.1315 32.7132L10.4309 32.3763L10.7452 32.047L11.0745 31.7177L11.4263 31.4033L11.7856 31.089L12.1598 30.7896L12.5491 30.4977L12.9607 30.2132L13.3724 29.9363L13.8065 29.6743L14.2481 29.4273L14.7047 29.1878L15.1687 28.9558L15.6403 28.7462L16.1268 28.5441L16.6208 28.3495L17.1223 28.1774L17.6387 28.0202L18.1552 27.8705L18.6791 27.7358L19.2031 27.6235L19.742 27.5187L20.2809 27.4364L20.8273 27.3615L21.3737 27.3091L21.9201 27.2717L22.4664 27.2418L23.0203 27.2343ZM23.0203 27.2343L23.5742 27.2418L24.1206 27.2717L24.667 27.3091L25.2134 27.3615L25.7598 27.4364L26.2987 27.5187L26.8376 27.6235L27.3615 27.7358L27.8929 27.8705L28.4094 28.0202L28.9184 28.1774L29.4198 28.3495L29.9138 28.5441L30.4003 28.7462L30.8794 28.9558L31.3434 29.1878L31.7925 29.4273L32.2341 29.6743L32.6683 29.9363L33.0874 30.2132L33.4916 30.4977L33.8808 30.7896L34.255 31.089L34.6218 31.4033L34.9661 31.7177L35.2954 32.047L35.6173 32.3763L35.9167 32.7132L36.2011 33.0575L36.4631 33.4092L36.7175 33.761L36.9496 34.1128L37.1666 34.4721L37.3612 34.8314L37.5409 35.1981L37.7055 35.5574L37.8477 35.9167L37.975 36.2759L38.0873 36.6352L38.1771 36.9945L38.2519 37.3463L38.3118 37.698L38.3492 38.0424L38.3717 38.3792V38.716L38.3567 39.0378L38.3268 39.3597L38.2819 39.674L38.2145 39.9734L38.1397 40.2653L38.0424 40.5498L37.9301 40.8267L37.8103 41.0887L37.6681 41.3357L37.5109 41.5752L37.3463 41.7997L37.1666 42.0168L36.972 42.2114L36.7624 42.3985L36.5454 42.5707L36.3208 42.7204L36.0813 42.8626L35.8343 42.9823L35.5724 43.0871L35.3104 43.1769L35.0335 43.2518L34.7565 43.3042L34.4646 43.3416L34.1727 43.3641L33.8733 43.3715L33.5664 43.3566L33.2596 43.3191L32.9452 43.2668L32.6383 43.1994L32.3165 43.1096L32.0021 43.0048L31.6877 42.8775L31.3734 42.7353L31.059 42.5782L30.7447 42.3985L30.4303 42.1964L30.1234 41.9868L29.824 41.7473L29.5246 41.5003L29.2252 41.2309L28.9408 40.9539L28.6639 40.6546L28.3869 40.3327L28.1175 40.0034L27.863 39.6591L27.616 39.2998L27.3765 38.9181L27.1445 38.5289L26.9274 38.1247L26.7178 37.713L26.5232 37.2789L26.3436 36.8448L26.1714 36.3882L26.0142 35.9316L25.8646 35.4526L25.7373 34.9736L25.6176 34.4871L25.5202 33.9856L25.4304 33.4766L25.3556 32.9676L25.3032 32.4512L25.2583 31.9273L25.2358 31.3958L25.2209 30.8644L25.2283 30.3255L25.2433 29.7941L25.2807 29.2552L25.3331 28.7088L25.408 28.1699L25.4903 27.631L25.5876 27.0921L25.7074 26.5532L25.8346 26.0217L25.9843 25.4903L26.149 24.9664L26.3286 24.4424L26.5157 23.926L26.7253 23.417L26.9498 22.9155L27.1819 22.4215L27.4289 21.935L27.6908 21.456L27.9678 20.9919L28.2522 20.5279L28.5516 20.0863L28.866 19.6447L29.1878 19.2255L29.5171 18.8139L29.8614 18.4097L30.2132 18.0279L30.5725 17.6537L30.9393 17.2944L31.3135 16.9576L31.6952 16.6283L32.0919 16.3139L32.4811 16.0145L32.8853 15.7376L33.2895 15.4681L33.6937 15.2211L34.1053 14.9891L34.517 14.772L34.9287 14.5774L35.3403 14.3978L35.7595 14.2331L36.1711 14.0834L36.5828 13.9562L36.9945 13.8439L37.3987 13.7541L37.8028 13.6718L38.207 13.6119L38.5962 13.567L38.9854 13.5445L39.3672 13.5371H39.7414L40.1082 13.567L40.4674 13.6044L40.8192 13.6568L41.156 13.7242L41.4854 13.814L41.8072 13.9113L42.1141 14.0236L42.406 14.1508L42.6904 14.293L42.9599 14.4502L43.2144 14.6149L43.4539 14.7945L43.6784 14.9816L43.888 15.1837L44.0826 15.3933L44.2622 15.6103L44.4269 15.8424L44.5766 16.0819L44.7038 16.3289L44.8161 16.5759L44.9059 16.8379L44.9808 17.0998L45.0407 17.3693L45.0856 17.6462L45.1005 17.9232L45.108 18.2076L45.0931 18.4845L45.0556 18.7764L45.0032 19.0608L44.9359 19.3453L44.8461 19.6297L44.7338 19.9141L44.6065 20.1985L44.4643 20.4755L44.2997 20.7524L44.12 21.0294L43.9179 21.2913L43.7009 21.5533L43.4688 21.8153L43.2144 22.0623L42.9524 22.3018L42.668 22.5413L42.3686 22.7658L42.0542 22.9829L41.7249 23.1925L41.3806 23.3871L41.0213 23.5742L40.6471 23.7463L40.2653 23.911L39.8686 24.0607L39.457 24.1954L39.0378 24.3227L38.6037 24.435L38.1621 24.5323L37.713 24.6146L37.249 24.6819L36.7849 24.7343L36.3059 24.7718L35.8268 24.7942L35.3403 24.8092L34.8463 24.7942L34.3449 24.7718L33.8434 24.7343L33.3419 24.6745L32.8329 24.5996L32.3165 24.5098L31.8075 24.405L31.2985 24.2853L30.7896 24.1505L30.2806 23.9933L29.7716 23.8212L29.2627 23.6341L28.7612 23.4395L28.2672 23.2149L27.7732 22.9829L27.2867 22.7359L26.8002 22.4739L26.3286 22.197L25.8646 21.9126L25.4005 21.6057L24.9514 21.2913L24.5098 20.962L24.0832 20.6177L23.664 20.2584L23.2523 19.8991L22.8557 19.5174L22.4664 19.1357L22.0922 18.739L21.7329 18.3273L21.3886 17.9157L21.0518 17.489L20.7374 17.0624L20.4306 16.6208L20.1461 16.1792L19.8692 15.7301L19.6072 15.281L19.3677 14.8244L19.1432 14.3604L18.9336 13.8963L18.739 13.4323L18.5594 12.9682L18.4022 12.4967L18.2525 12.0326L18.1327 11.5685L18.0205 11.1045L17.9232 10.6404L17.8483 10.1839L17.7884 9.72728L17.7435 9.27819L17.7136 8.8291L17.7061 8.39498V7.96086L17.7286 7.53423L17.766 7.12256L17.8184 6.7109L17.8857 6.3142L17.9606 5.92499L18.0579 5.55075L18.1702 5.18399L18.2899 4.82472L18.4246 4.48791L18.5743 4.15857L18.7315 3.84421L18.9037 3.53733L19.0908 3.25291L19.2779 2.98346L19.4875 2.72149L19.6971 2.48197L19.9141 2.25743L20.1461 2.04786L20.3857 1.86073L20.6252 1.68858L20.8797 1.5314L21.1341 1.38919L21.3961 1.26943L21.6581 1.17213L21.9275 1.08231L22.197 1.02244L22.4739 0.970041L22.7434 0.947587L23.0203 0.932617L23.2973 0.947587L23.5742 0.970041L23.8436 1.02244L24.1131 1.08231L24.3826 1.17213L24.652 1.26943L24.9065 1.38919L25.161 1.5314L25.4155 1.68858L25.655 1.86073L25.8945 2.04786L26.1265 2.25743L26.3436 2.48197L26.5606 2.72149L26.7627 2.98346L26.9573 3.25291L27.137 3.53733L27.3091 3.84421L27.4663 4.15857L27.616 4.48791L27.7507 4.82472L27.8705 5.18399L27.9828 5.55075L28.0801 5.92499L28.1624 6.3142L28.2223 6.7109L28.2747 7.12256L28.3121 7.53423L28.3345 7.96086V8.39498L28.3271 8.8291L28.2971 9.27819L28.2522 9.72728L28.1923 10.1839L28.1175 10.6404L28.0202 11.1045L27.9154 11.5685L27.7881 12.0326L27.6385 12.4967L27.4813 12.9682L27.3016 13.4323L27.107 13.8963L26.8975 14.3604L26.6729 14.8244L26.4334 15.281L26.1714 15.7301L25.902 16.1792L25.6101 16.6208L25.3032 17.0624L24.9888 17.489L24.652 17.9157L24.3077 18.3273L23.9484 18.739L23.5742 19.1357L23.185 19.5174L22.7883 19.8991L22.3841 20.2584L21.9575 20.6177L21.5308 20.962L21.0892 21.2913L20.6401 21.6057L20.1761 21.9126L19.712 22.197L19.2405 22.4739L18.754 22.7359L18.2675 22.9829L17.7735 23.2149L17.2795 23.4395L16.778 23.6341L16.269 23.8212L15.7675 23.9933L15.2586 24.1505L14.7421 24.2853L14.2331 24.405L13.7242 24.5098L13.2152 24.5996L12.7062 24.6745L12.1973 24.7343L11.6958 24.7718L11.1943 24.7942L10.7003 24.8092L10.2138 24.7942L9.73476 24.7718L9.25574 24.7343L8.79168 24.6819L8.32762 24.6146L7.87853 24.5323L7.43692 24.435L7.00281 24.3227L6.58366 24.1954L6.17199 24.0607L5.7753 23.911L5.39357 23.7463L5.01933 23.5742L4.66006 23.3871L4.31576 23.1925L3.98642 22.9829L3.67206 22.7658L3.37267 22.5413L3.08825 22.3018L2.82628 22.0623L2.57179 21.8153L2.33976 21.5533L2.1227 21.2913L1.92061 21.0294L1.74098 20.7524L1.57631 20.4755L1.4341 20.1985L1.30686 19.9141L1.19459 19.6297L1.11225 19.3453L1.0374 19.0608L0.985011 18.7764L0.947587 18.4845L0.932617 18.2076L0.940102 17.9232L0.962556 17.6462L0.999981 17.3693L1.05986 17.0998L1.13471 16.8379L1.22453 16.5759L1.3368 16.3289L1.47152 16.0819L1.61374 15.8424L1.7784 15.6103L1.95804 15.3933L2.15264 15.1837L2.36222 14.9816L2.58676 14.7945L2.82628 14.6149L3.08076 14.4502L3.35021 14.293L3.63464 14.1508L3.92654 14.0236L4.23342 13.9113L4.55527 13.814L4.8846 13.7242L5.22142 13.6568L5.57321 13.6044L5.93248 13.567L6.29923 13.5371H6.67347L7.0552 13.5445L7.44441 13.567L7.84111 13.6119L8.2378 13.6718L8.64198 13.7541L9.04616 13.8439L9.45783 13.9562L9.86949 14.0834L10.2812 14.2331L10.7003 14.3978L11.112 14.5774L11.5236 14.772L11.9428 14.9891L12.347 15.2211L12.7586 15.4681L13.1628 15.7376L13.5595 16.0145L13.9562 16.3139L14.3454 16.6283L14.7271 16.9576L15.1014 17.2944L15.4681 17.6537L15.8274 18.0279L16.1792 18.4097L16.5235 18.8139L16.8528 19.2255L17.1747 19.6447L17.489 20.0863L17.7884 20.5279L18.0729 20.9919L18.3498 21.456L18.6118 21.935L18.8588 22.4215L19.0983 22.9155L19.3153 23.417L19.5249 23.926L19.7195 24.4424L19.8917 24.9664L20.0563 25.4903L20.206 26.0217L20.3333 26.5532L20.453 27.0921L20.5503 27.631L20.6401 28.1699L20.7075 28.7088L20.7599 29.2552L20.7973 29.7941L20.8198 30.3255V30.8644L20.8123 31.3958L20.7824 31.9273L20.7374 32.4512L20.6851 32.9676L20.6102 33.4766L20.5204 33.9856L20.4231 34.4871L20.3033 34.9736L20.1761 35.4526L20.0264 35.9316L19.8692 36.3882L19.6971 36.8448L19.5174 37.2789L19.3228 37.713L19.1132 38.1247L18.8962 38.5289L18.6642 38.9181L18.4246 39.2998L18.1776 39.6591L17.9232 40.0034L17.6537 40.3327L17.3842 40.6546L17.0998 40.9539L16.8154 41.2309L16.516 41.5003L16.2241 41.7473L15.9172 41.9868L15.6103 42.1964L15.296 42.3985L14.9816 42.5782L14.6747 42.7353L14.3529 42.8775L14.0385 43.0048L13.7242 43.1096L13.4098 43.1994L13.0954 43.2668L12.7811 43.3191L12.4742 43.3566L12.1748 43.3715L11.8754 43.3641L11.576 43.3416L11.2916 43.3042L11.0072 43.2518L10.7302 43.1769L10.4683 43.0871L10.2063 42.9823L9.95931 42.8626L9.71979 42.7204L9.49525 42.5707L9.27819 42.3985L9.06862 42.2114L8.8815 42.0168L8.69437 41.7997L8.52971 41.5752L8.37253 41.3357L8.2378 41.0887L8.11056 40.8267L7.99829 40.5498L7.90098 40.2653L7.82614 39.9734L7.75877 39.674L7.71386 39.3597L7.68392 39.0378L7.66895 38.716L7.67644 38.3792L7.69889 38.0424L7.73632 37.698L7.78871 37.3463L7.86356 36.9945L7.95338 36.6352L8.06565 36.2759L8.19289 35.9167L8.3351 35.5574L8.49977 35.1981L8.67941 34.8314L8.8815 34.4721L9.09107 34.1128L9.3231 33.761L9.57758 33.4092L9.84704 33.0575L10.1315 32.7132L10.4309 32.3763L10.7452 32.047L11.0745 31.7177L11.4263 31.4033L11.7856 31.089L12.1598 30.7896L12.5491 30.4977L12.9607 30.2132L13.3724 29.9363L13.8065 29.6743L14.2481 29.4273L14.7047 29.1878L15.1687 28.9558L15.6403 28.7462L16.1268 28.5441L16.6208 28.3495L17.1223 28.1774L17.6387 28.0202L18.1552 27.8705L18.6791 27.7358L19.2031 27.6235L19.742 27.5187L20.2809 27.4364L20.8273 27.3615L21.3737 27.3091L21.9201 27.2717L22.4664 27.2418L23.0203 27.2343ZM23.0203 27.2343L23.5742 27.2418L24.1206 27.2717L24.667 27.3091L25.2134 27.3615L25.7598 27.4364L26.2987 27.5187L26.8376 27.6235L27.3615 27.7358L27.8929 27.8705L28.4094 28.0202L28.9184 28.1774L29.4198 28.3495L29.9138 28.5441L30.4003 28.7462L30.8794 28.9558L31.3434 29.1878L31.7925 29.4273L32.2341 29.6743L32.6683 29.9363L33.0874 30.2132L33.4916 30.4977L33.8808 30.7896L34.255 31.089L34.6218 31.4033L34.9661 31.7177L35.2954 32.047L35.6173 32.3763L35.9167 32.7132L36.2011 33.0575L36.4631 33.4092L36.7175 33.761L36.9496 34.1128L37.1666 34.4721L37.3612 34.8314L37.5409 35.1981L37.7055 35.5574L37.8477 35.9167L37.975 36.2759L38.0873 36.6352L38.1771 36.9945L38.2519 37.3463L38.3118 37.698L38.3492 38.0424L38.3717 38.3792V38.716L38.3567 39.0378L38.3268 39.3597L38.2819 39.674L38.2145 39.9734L38.1397 40.2653L38.0424 40.5498L37.9301 40.8267L37.8103 41.0887L37.6681 41.3357L37.5109 41.5752L37.3463 41.7997L37.1666 42.0168L36.972 42.2114L36.7624 42.3985L36.5454 42.5707L36.3208 42.7204L36.0813 42.8626L35.8343 42.9823L35.5724 43.0871L35.3104 43.1769L35.0335 43.2518L34.7565 43.3042L34.4646 43.3416L34.1727 43.3641L33.8733 43.3715L33.5664 43.3566L33.2596 43.3191L32.9452 43.2668L32.6383 43.1994L32.3165 43.1096L32.0021 43.0048L31.6877 42.8775L31.3734 42.7353L31.059 42.5782L30.7447 42.3985L30.4303 42.1964L30.1234 41.9868L29.824 41.7473L29.5246 41.5003L29.2252 41.2309L28.9408 40.9539L28.6639 40.6546L28.3869 40.3327L28.1175 40.0034L27.863 39.6591L27.616 39.2998L27.3765 38.9181L27.1445 38.5289L26.9274 38.1247L26.7178 37.713L26.5232 37.2789L26.3436 36.8448L26.1714 36.3882L26.0142 35.9316L25.8646 35.4526L25.7373 34.9736L25.6176 34.4871L25.5202 33.9856L25.4304 33.4766L25.3556 32.9676L25.3032 32.4512L25.2583 31.9273L25.2358 31.3958L25.2209 30.8644L25.2283 30.3255L25.2433 29.7941L25.2807 29.2552L25.3331 28.7088L25.408 28.1699L25.4903 27.631L25.5876 27.0921L25.7074 26.5532L25.8346 26.0217L25.9843 25.4903L26.149 24.9664L26.3286 24.4424L26.5157 23.926L26.7253 23.417L26.9498 22.9155L27.1819 22.4215L27.4289 21.935L27.6908 21.456L27.9678 20.9919L28.2522 20.5279L28.5516 20.0863L28.866 19.6447L29.1878 19.2255L29.5171 18.8139L29.8614 18.4097L30.2132 18.0279L30.5725 17.6537L30.9393 17.2944L31.3135 16.9576L31.6952 16.6283L32.0919 16.3139L32.4811 16.0145L32.8853 15.7376L33.2895 15.4681L33.6937 15.2211L34.1053 14.9891L34.517 14.772L34.9287 14.5774L35.3403 14.3978L35.7595 14.2331L36.1711 14.0834L36.5828 13.9562L36.9945 13.8439L37.3987 13.7541L37.8028 13.6718L38.207 13.6119L38.5962 13.567L38.9854 13.5445L39.3672 13.5371H39.7414L40.1082 13.567L40.4674 13.6044L40.8192 13.6568L41.156 13.7242L41.4854 13.814L41.8072 13.9113L42.1141 14.0236L42.406 14.1508L42.6904 14.293L42.9599 14.4502L43.2144 14.6149L43.4539 14.7945L43.6784 14.9816L43.888 15.1837L44.0826 15.3933L44.2622 15.6103L44.4269 15.8424L44.5766 16.0819L44.7038 16.3289L44.8161 16.5759L44.9059 16.8379L44.9808 17.0998L45.0407 17.3693L45.0856 17.6462L45.1005 17.9232L45.108 18.2076L45.0931 18.4845L45.0556 18.7764L45.0032 19.0608L44.9359 19.3453L44.8461 19.6297L44.7338 19.9141L44.6065 20.1985L44.4643 20.4755L44.2997 20.7524L44.12 21.0294L43.9179 21.2913L43.7009 21.5533L43.4688 21.8153L43.2144 22.0623L42.9524 22.3018L42.668 22.5413L42.3686 22.7658L42.0542 22.9829L41.7249 23.1925L41.3806 23.3871L41.0213 23.5742L40.6471 23.7463L40.2653 23.911L39.8686 24.0607L39.457 24.1954L39.0378 24.3227L38.6037 24.435L38.1621 24.5323L37.713 24.6146L37.249 24.6819L36.7849 24.7343L36.3059 24.7718L35.8268 24.7942L35.3403 24.8092L34.8463 24.7942L34.3449 24.7718L33.8434 24.7343L33.3419 24.6745L32.8329 24.5996L32.3165 24.5098L31.8075 24.405L31.2985 24.2853L30.7896 24.1505L30.2806 23.9933L29.7716 23.8212L29.2627 23.6341L28.7612 23.4395L28.2672 23.2149L27.7732 22.9829L27.2867 22.7359L26.8002 22.4739L26.3286 22.197L25.8646 21.9126L25.4005 21.6057L24.9514 21.2913L24.5098 20.962L24.0832 20.6177L23.664 20.2584L23.2523 19.8991L22.8557 19.5174L22.4664 19.1357L22.0922 18.739L21.7329 18.3273L21.3886 17.9157L21.0518 17.489L20.7374 17.0624L20.4306 16.6208L20.1461 16.1792L19.8692 15.7301L19.6072 15.281L19.3677 14.8244L19.1432 14.3604L18.9336 13.8963L18.739 13.4323L18.5594 12.9682L18.4022 12.4967L18.2525 12.0326L18.1327 11.5685L18.0205 11.1045L17.9232 10.6404L17.8483 10.1839L17.7884 9.72728L17.7435 9.27819L17.7136 8.8291L17.7061 8.39498V7.96086L17.7286 7.53423L17.766 7.12256L17.8184 6.7109L17.8857 6.3142L17.9606 5.92499L18.0579 5.55075L18.1702 5.18399L18.2899 4.82472L18.4246 4.48791L18.5743 4.15857L18.7315 3.84421L18.9037 3.53733L19.0908 3.25291L19.2779 2.98346L19.4875 2.72149L19.6971 2.48197L19.9141 2.25743L20.1461 2.04786L20.3857 1.86073L20.6252 1.68858L20.8797 1.5314L21.1341 1.38919L21.3961 1.26943L21.6581 1.17213L21.9275 1.08231L22.197 1.02244L22.4739 0.970041L22.7434 0.947587L23.0203 0.932617L23.2973 0.947587L23.5742 0.970041L23.8436 1.02244L24.1131 1.08231L24.3826 1.17213L24.652 1.26943L24.9065 1.38919L25.161 1.5314L25.4155 1.68858L25.655 1.86073L25.8945 2.04786L26.1265 2.25743L26.3436 2.48197L26.5606 2.72149L26.7627 2.98346L26.9573 3.25291L27.137 3.53733L27.3091 3.84421L27.4663 4.15857L27.616 4.48791L27.7507 4.82472L27.8705 5.18399L27.9828 5.55075L28.0801 5.92499L28.1624 6.3142L28.2223 6.7109L28.2747 7.12256L28.3121 7.53423L28.3345 7.96086V8.39498L28.3271 8.8291L28.2971 9.27819L28.2522 9.72728L28.1923 10.1839L28.1175 10.6404L28.0202 11.1045L27.9154 11.5685L27.7881 12.0326L27.6385 12.4967L27.4813 12.9682L27.3016 13.4323L27.107 13.8963L26.8975 14.3604L26.6729 14.8244L26.4334 15.281L26.1714 15.7301L25.902 16.1792L25.6101 16.6208L25.3032 17.0624L24.9888 17.489L24.652 17.9157L24.3077 18.3273L23.9484 18.739L23.5742 19.1357L23.185 19.5174L22.7883 19.8991L22.3841 20.2584L21.9575 20.6177L21.5308 20.962L21.0892 21.2913L20.6401 21.6057L20.1761 21.9126L19.712 22.197L19.2405 22.4739L18.754 22.7359L18.2675 22.9829L17.7735 23.2149L17.2795 23.4395L16.778 23.6341L16.269 23.8212L15.7675 23.9933L15.2586 24.1505L14.7421 24.2853L14.2331 24.405L13.7242 24.5098L13.2152 24.5996L12.7062 24.6745L12.1973 24.7343L11.6958 24.7718L11.1943 24.7942L10.7003 24.8092L10.2138 24.7942L9.73476 24.7718L9.25574 24.7343L8.79168 24.6819L8.32762 24.6146L7.87853 24.5323L7.43692 24.435L7.00281 24.3227L6.58366 24.1954L6.17199 24.0607L5.7753 23.911L5.39357 23.7463L5.01933 23.5742L4.66006 23.3871L4.31576 23.1925L3.98642 22.9829L3.67206 22.7658L3.37267 22.5413L3.08825 22.3018L2.82628 22.0623L2.57179 21.8153L2.33976 21.5533L2.1227 21.2913L1.92061 21.0294L1.74098 20.7524L1.57631 20.4755L1.4341 20.1985L1.30686 19.9141L1.19459 19.6297L1.11225 19.3453L1.0374 19.0608L0.985011 18.7764L0.947587 18.4845L0.932617 18.2076L0.940102 17.9232L0.962556 17.6462L0.999981 17.3693L1.05986 17.0998L1.13471 16.8379L1.22453 16.5759L1.3368 16.3289L1.47152 16.0819L1.61374 15.8424L1.7784 15.6103L1.95804 15.3933L2.15264 15.1837L2.36222 14.9816L2.58676 14.7945L2.82628 14.6149L3.08076 14.4502L3.35021 14.293L3.63464 14.1508L3.92654 14.0236L4.23342 13.9113L4.55527 13.814L4.8846 13.7242L5.22142 13.6568L5.57321 13.6044L5.93248 13.567L6.29923 13.5371H6.67347L7.0552 13.5445L7.44441 13.567L7.84111 13.6119L8.2378 13.6718L8.64198 13.7541L9.04616 13.8439L9.45783 13.9562L9.86949 14.0834L10.2812 14.2331L10.7003 14.3978L11.112 14.5774L11.5236 14.772L11.9428 14.9891L12.347 15.2211L12.7586 15.4681L13.1628 15.7376L13.5595 16.0145L13.9562 16.3139L14.3454 16.6283L14.7271 16.9576L15.1014 17.2944L15.4681 17.6537L15.8274 18.0279L16.1792 18.4097L16.5235 18.8139L16.8528 19.2255L17.1747 19.6447L17.489 20.0863L17.7884 20.5279L18.0729 20.9919L18.3498 21.456L18.6118 21.935L18.8588 22.4215L19.0983 22.9155L19.3153 23.417L19.5249 23.926L19.7195 24.4424L19.8917 24.9664L20.0563 25.4903L20.206 26.0217L20.3333 26.5532L20.453 27.0921L20.5503 27.631L20.6401 28.1699L20.7075 28.7088L20.7599 29.2552L20.7973 29.7941L20.8198 30.3255V30.8644L20.8123 31.3958L20.7824 31.9273L20.7374 32.4512L20.6851 32.9676L20.6102 33.4766L20.5204 33.9856L20.4231 34.4871L20.3033 34.9736L20.1761 35.4526L20.0264 35.9316L19.8692 36.3882L19.6971 36.8448L19.5174 37.2789L19.3228 37.713L19.1132 38.1247L18.8962 38.5289L18.6642 38.9181L18.4246 39.2998L18.1776 39.6591L17.9232 40.0034L17.6537 40.3327L17.3842 40.6546L17.0998 40.9539L16.8154 41.2309L16.516 41.5003L16.2241 41.7473L15.9172 41.9868L15.6103 42.1964L15.296 42.3985L14.9816 42.5782L14.6747 42.7353L14.3529 42.8775L14.0385 43.0048L13.7242 43.1096L13.4098 43.1994L13.0954 43.2668L12.7811 43.3191L12.4742 43.3566L12.1748 43.3715L11.8754 43.3641L11.576 43.3416L11.2916 43.3042L11.0072 43.2518L10.7302 43.1769L10.4683 43.0871L10.2063 42.9823L9.95931 42.8626L9.71979 42.7204L9.49525 42.5707L9.27819 42.3985L9.06862 42.2114L8.8815 42.0168L8.69437 41.7997L8.52971 41.5752L8.37253 41.3357L8.2378 41.0887L8.11056 40.8267L7.99829 40.5498L7.90098 40.2653L7.82614 39.9734L7.75877 39.674L7.71386 39.3597L7.68392 39.0378L7.66895 38.716L7.67644 38.3792L7.69889 38.0424L7.73632 37.698L7.78871 37.3463L7.86356 36.9945L7.95338 36.6352L8.06565 36.2759L8.19289 35.9167L8.3351 35.5574L8.49977 35.1981L8.67941 34.8314L8.8815 34.4721L9.09107 34.1128L9.3231 33.761L9.57758 33.4092L9.84704 33.0575L10.1315 32.7132L10.4309 32.3763L10.7452 32.047L11.0745 31.7177L11.4263 31.4033L11.7856 31.089L12.1598 30.7896L12.5491 30.4977L12.9607 30.2132L13.3724 29.9363L13.8065 29.6743L14.2481 29.4273L14.7047 29.1878L15.1687 28.9558L15.6403 28.7462L16.1268 28.5441L16.6208 28.3495L17.1223 28.1774L17.6387 28.0202L18.1552 27.8705L18.6791 27.7358L19.2031 27.6235L19.742 27.5187L20.2809 27.4364L20.8273 27.3615L21.3737 27.3091L21.9201 27.2717L22.4664 27.2418L23.0203 27.2343ZM23.0203 27.2343L23.5742 27.2418L24.1206 27.2717L24.667 27.3091L25.2134 27.3615L25.7598 27.4364L26.2987 27.5187L26.8376 27.6235L27.3615 27.7358L27.8929 27.8705L28.4094 28.0202L28.9184 28.1774L29.4198 28.3495L29.9138 28.5441L30.4003 28.7462L30.8794 28.9558L31.3434 29.1878L31.7925 29.4273L32.2341 29.6743L32.6683 29.9363L33.0874 30.2132L33.4916 30.4977L33.8808 30.7896L34.255 31.089L34.6218 31.4033L34.9661 31.7177L35.2954 32.047L35.6173 32.3763L35.9167 32.7132L36.2011 33.0575L36.4631 33.4092L36.7175 33.761L36.9496 34.1128L37.1666 34.4721L37.3612 34.8314L37.5409 35.1981L37.7055 35.5574L37.8477 35.9167L37.975 36.2759L38.0873 36.6352L38.1771 36.9945L38.2519 37.3463L38.3118 37.698L38.3492 38.0424L38.3717 38.3792V38.716L38.3567 39.0378L38.3268 39.3597L38.2819 39.674L38.2145 39.9734L38.1397 40.2653L38.0424 40.5498L37.9301 40.8267L37.8103 41.0887L37.6681 41.3357L37.5109 41.5752L37.3463 41.7997L37.1666 42.0168L36.972 42.2114L36.7624 42.3985L36.5454 42.5707L36.3208 42.7204L36.0813 42.8626L35.8343 42.9823L35.5724 43.0871L35.3104 43.1769L35.0335 43.2518L34.7565 43.3042L34.4646 43.3416L34.1727 43.3641L33.8733 43.3715L33.5664 43.3566L33.2596 43.3191L32.9452 43.2668L32.6383 43.1994L32.3165 43.1096L32.0021 43.0048L31.6877 42.8775L31.3734 42.7353L31.059 42.5782L30.7447 42.3985L30.4303 42.1964L30.1234 41.9868L29.824 41.7473L29.5246 41.5003L29.2252 41.2309L28.9408 40.9539L28.6639 40.6546L28.3869 40.3327L28.1175 40.0034L27.863 39.6591L27.616 39.2998L27.3765 38.9181L27.1445 38.5289L26.9274 38.1247L26.7178 37.713L26.5232 37.2789L26.3436 36.8448L26.1714 36.3882L26.0142 35.9316L25.8646 35.4526L25.7373 34.9736L25.6176 34.4871L25.5202 33.9856L25.4304 33.4766L25.3556 32.9676L25.3032 32.4512L25.2583 31.9273L25.2358 31.3958L25.2209 30.8644L25.2283 30.3255L25.2433 29.7941L25.2807 29.2552L25.3331 28.7088L25.408 28.1699L25.4903 27.631L25.5876 27.0921L25.7074 26.5532L25.8346 26.0217L25.9843 25.4903L26.149 24.9664L26.3286 24.4424L26.5157 23.926L26.7253 23.417L26.9498 22.9155L27.1819 22.4215L27.4289 21.935L27.6908 21.456L27.9678 20.9919L28.2522 20.5279L28.5516 20.0863L28.866 19.6447L29.1878 19.2255L29.5171 18.8139L29.8614 18.4097L30.2132 18.0279L30.5725 17.6537L30.9393 17.2944L31.3135 16.9576L31.6952 16.6283L32.0919 16.3139L32.4811 16.0145L32.8853 15.7376L33.2895 15.4681L33.6937 15.2211L34.1053 14.9891L34.517 14.772L34.9287 14.5774L35.3403 14.3978L35.7595 14.2331L36.1711 14.0834L36.5828 13.9562L36.9945 13.8439L37.3987 13.7541L37.8028 13.6718L38.207 13.6119L38.5962 13.567L38.9854 13.5445L39.3672 13.5371H39.7414L40.1082 13.567L40.4674 13.6044L40.8192 13.6568L41.156 13.7242L41.4854 13.814L41.8072 13.9113L42.1141 14.0236L42.406 14.1508L42.6904 14.293L42.9599 14.4502L43.2144 14.6149L43.4539 14.7945L43.6784 14.9816L43.888 15.1837L44.0826 15.3933L44.2622 15.6103L44.4269 15.8424L44.5766 16.0819L44.7038 16.3289L44.8161 16.5759L44.9059 16.8379L44.9808 17.0998L45.0407 17.3693L45.0856 17.6462L45.1005 17.9232L45.108 18.2076L45.0931 18.4845L45.0556 18.7764L45.0032 19.0608L44.9359 19.3453L44.8461 19.6297L44.7338 19.9141L44.6065 20.1985L44.4643 20.4755L44.2997 20.7524L44.12 21.0294L43.9179 21.2913L43.7009 21.5533L43.4688 21.8153L43.2144 22.0623L42.9524 22.3018L42.668 22.5413L42.3686 22.7658L42.0542 22.9829L41.7249 23.1925L41.3806 23.3871L41.0213 23.5742L40.6471 23.7463L40.2653 23.911L39.8686 24.0607L39.457 24.1954L39.0378 24.3227L38.6037 24.435L38.1621 24.5323L37.713 24.6146L37.249 24.6819L36.7849 24.7343L36.3059 24.7718L35.8268 24.7942L35.3403 24.8092L34.8463 24.7942L34.3449 24.7718L33.8434 24.7343L33.3419 24.6745L32.8329 24.5996L32.3165 24.5098L31.8075 24.405L31.2985 24.2853L30.7896 24.1505L30.2806 23.9933L29.7716 23.8212L29.2627 23.6341L28.7612 23.4395L28.2672 23.2149L27.7732 22.9829L27.2867 22.7359L26.8002 22.4739L26.3286 22.197L25.8646 21.9126L25.4005 21.6057L24.9514 21.2913L24.5098 20.962L24.0832 20.6177L23.664 20.2584L23.2523 19.8991L22.8557 19.5174L22.4664 19.1357L22.0922 18.739L21.7329 18.3273L21.3886 17.9157L21.0518 17.489L20.7374 17.0624L20.4306 16.6208L20.1461 16.1792L19.8692 15.7301L19.6072 15.281L19.3677 14.8244L19.1432 14.3604L18.9336 13.8963L18.739 13.4323L18.5594 12.9682L18.4022 12.4967L18.2525 12.0326L18.1327 11.5685L18.0205 11.1045L17.9232 10.6404L17.8483 10.1839L17.7884 9.72728L17.7435 9.27819L17.7136 8.8291L17.7061 8.39498V7.96086L17.7286 7.53423L17.766 7.12256L17.8184 6.7109L17.8857 6.3142L17.9606 5.92499L18.0579 5.55075L18.1702 5.18399L18.2899 4.82472L18.4246 4.48791L18.5743 4.15857L18.7315 3.84421L18.9037 3.53733L19.0908 3.25291L19.2779 2.98346L19.4875 2.72149L19.6971 2.48197L19.9141 2.25743L20.1461 2.04786L20.3857 1.86073L20.6252 1.68858L20.8797 1.5314L21.1341 1.38919L21.3961 1.26943L21.6581 1.17213L21.9275 1.08231L22.197 1.02244L22.4739 0.970041L22.7434 0.947587L23.0203 0.932617L23.2973 0.947587L23.5742 0.970041L23.8436 1.02244L24.1131 1.08231L24.3826 1.17213L24.652 1.26943L24.9065 1.38919L25.161 1.5314L25.4155 1.68858L25.655 1.86073L25.8945 2.04786L26.1265 2.25743L26.3436 2.48197L26.5606 2.72149L26.7627 2.98346L26.9573 3.25291L27.137 3.53733L27.3091 3.84421L27.4663 4.15857L27.616 4.48791L27.7507 4.82472L27.8705 5.18399L27.9828 5.55075L28.0801 5.92499L28.1624 6.3142L28.2223 6.7109L28.2747 7.12256L28.3121 7.53423L28.3345 7.96086V8.39498L28.3271 8.8291L28.2971 9.27819L28.2522 9.72728L28.1923 10.1839L28.1175 10.6404L28.0202 11.1045L27.9154 11.5685L27.7881 12.0326L27.6385 12.4967L27.4813 12.9682L27.3016 13.4323L27.107 13.8963L26.8975 14.3604L26.6729 14.8244L26.4334 15.281L26.1714 15.7301L25.902 16.1792L25.6101 16.6208L25.3032 17.0624L24.9888 17.489L24.652 17.9157L24.3077 18.3273L23.9484 18.739L23.5742 19.1357L23.185 19.5174L22.7883 19.8991L22.3841 20.2584L21.9575 20.6177L21.5308 20.962L21.0892 21.2913L20.6401 21.6057L20.1761 21.9126L19.712 22.197L19.2405 22.4739L18.754 22.7359L18.2675 22.9829L17.7735 23.2149L17.2795 23.4395L16.778 23.6341L16.269 23.8212L15.7675 23.9933L15.2586 24.1505L14.7421 24.2853L14.2331 24.405L13.7242 24.5098L13.2152 24.5996L12.7062 24.6745L12.1973 24.7343L11.6958 24.7718L11.1943 24.7942L10.7003 24.8092L10.2138 24.7942L9.73476 24.7718L9.25574 24.7343L8.79168 24.6819L8.32762 24.6146L7.87853 24.5323L7.43692 24.435L7.00281 24.3227L6.58366 24.1954L6.17199 24.0607L5.7753 23.911L5.39357 23.7463L5.01933 23.5742L4.66006 23.3871L4.31576 23.1925L3.98642 22.9829L3.67206 22.7658L3.37267 22.5413L3.08825 22.3018L2.82628 22.0623L2.57179 21.8153L2.33976 21.5533L2.1227 21.2913L1.92061 21.0294L1.74098 20.7524L1.57631 20.4755L1.4341 20.1985L1.30686 19.9141L1.19459 19.6297L1.11225 19.3453L1.0374 19.0608L0.985011 18.7764L0.947587 18.4845L0.932617 18.2076L0.940102 17.9232L0.962556 17.6462L0.999981 17.3693L1.05986 17.0998L1.13471 16.8379L1.22453 16.5759L1.3368 16.3289L1.47152 16.0819L1.61374 15.8424L1.7784 15.6103L1.95804 15.3933L2.15264 15.1837L2.36222 14.9816L2.58676 14.7945L2.82628 14.6149L3.08076 14.4502L3.35021 14.293L3.63464 14.1508L3.92654 14.0236L4.23342 13.9113L4.55527 13.814L4.8846 13.7242L5.22142 13.6568L5.57321 13.6044L5.93248 13.567L6.29923 13.5371H6.67347L7.0552 13.5445L7.44441 13.567L7.84111 13.6119L8.2378 13.6718L8.64198 13.7541L9.04616 13.8439L9.45783 13.9562L9.86949 14.0834L10.2812 14.2331L10.7003 14.3978L11.112 14.5774L11.5236 14.772L11.9428 14.9891L12.347 15.2211L12.7586 15.4681L13.1628 15.7376L13.5595 16.0145L13.9562 16.3139L14.3454 16.6283L14.7271 16.9576L15.1014 17.2944L15.4681 17.6537L15.8274 18.0279L16.1792 18.4097L16.5235 18.8139L16.8528 19.2255L17.1747 19.6447L17.489 20.0863L17.7884 20.5279L18.0729 20.9919L18.3498 21.456L18.6118 21.935L18.8588 22.4215L19.0983 22.9155L19.3153 23.417L19.5249 23.926L19.7195 24.4424L19.8917 24.9664L20.0563 25.4903L20.206 26.0217L20.3333 26.5532L20.453 27.0921L20.5503 27.631L20.6401 28.1699L20.7075 28.7088L20.7599 29.2552L20.7973 29.7941L20.8198 30.3255V30.8644L20.8123 31.3958L20.7824 31.9273L20.7374 32.4512L20.6851 32.9676L20.6102 33.4766L20.5204 33.9856L20.4231 34.4871L20.3033 34.9736L20.1761 35.4526L20.0264 35.9316L19.8692 36.3882L19.6971 36.8448L19.5174 37.2789L19.3228 37.713L19.1132 38.1247L18.8962 38.5289L18.6642 38.9181L18.4246 39.2998L18.1776 39.6591L17.9232 40.0034L17.6537 40.3327L17.3842 40.6546L17.0998 40.9539L16.8154 41.2309L16.516 41.5003L16.2241 41.7473L15.9172 41.9868L15.6103 42.1964L15.296 42.3985L14.9816 42.5782L14.6747 42.7353L14.3529 42.8775L14.0385 43.0048L13.7242 43.1096L13.4098 43.1994L13.0954 43.2668L12.7811 43.3191L12.4742 43.3566L12.1748 43.3715L11.8754 43.3641L11.576 43.3416L11.2916 43.3042L11.0072 43.2518L10.7302 43.1769L10.4683 43.0871L10.2063 42.9823L9.95931 42.8626L9.71979 42.7204L9.49525 42.5707L9.27819 42.3985L9.06862 42.2114L8.8815 42.0168L8.69437 41.7997L8.52971 41.5752L8.37253 41.3357L8.2378 41.0887L8.11056 40.8267L7.99829 40.5498L7.90098 40.2653L7.82614 39.9734L7.75877 39.674L7.71386 39.3597L7.68392 39.0378L7.66895 38.716L7.67644 38.3792L7.69889 38.0424L7.73632 37.698L7.78871 37.3463L7.86356 36.9945L7.95338 36.6352L8.06565 36.2759L8.19289 35.9167L8.3351 35.5574L8.49977 35.1981L8.67941 34.8314L8.8815 34.4721L9.09107 34.1128L9.3231 33.761L9.57758 33.4092L9.84704 33.0575L10.1315 32.7132L10.4309 32.3763L10.7452 32.047L11.0745 31.7177L11.4263 31.4033L11.7856 31.089L12.1598 30.7896L12.5491 30.4977L12.9607 30.2132L13.3724 29.9363L13.8065 29.6743L14.2481 29.4273L14.7047 29.1878L15.1687 28.9558L15.6403 28.7462L16.1268 28.5441L16.6208 28.3495L17.1223 28.1774L17.6387 28.0202L18.1552 27.8705L18.6791 27.7358L19.2031 27.6235L19.742 27.5187L20.2809 27.4364L20.8273 27.3615L21.3737 27.3091L21.9201 27.2717L22.4664 27.2418L23.0203 27.2343ZM23.0203 27.2343L23.5742 27.2418L24.1206 27.2717L24.667 27.3091L25.2134 27.3615L25.7598 27.4364L26.2987 27.5187L26.8376 27.6235L27.3615 27.7358L27.8929 27.8705L28.4094 28.0202L28.9184 28.1774L29.4198 28.3495L29.9138 28.5441L30.4003 28.7462L30.8794 28.9558L31.3434 29.1878L31.7925 29.4273L32.2341 29.6743L32.6683 29.9363L33.0874 30.2132L33.4916 30.4977L33.8808 30.7896L34.255 31.089L34.6218 31.4033L34.9661 31.7177L35.2954 32.047L35.6173 32.3763L35.9167 32.7132L36.2011 33.0575L36.4631 33.4092L36.7175 33.761L36.9496 34.1128L37.1666 34.4721L37.3612 34.8314L37.5409 35.1981L37.7055 35.5574L37.8477 35.9167L37.975 36.2759L38.0873 36.6352L38.1771 36.9945L38.2519 37.3463L38.3118 37.698L38.3492 38.0424L38.3717 38.3792V38.716L38.3567 39.0378L38.3268 39.3597L38.2819 39.674L38.2145 39.9734L38.1397 40.2653L38.0424 40.5498L37.9301 40.8267L37.8103 41.0887L37.6681 41.3357L37.5109 41.5752L37.3463 41.7997L37.1666 42.0168L36.972 42.2114L36.7624 42.3985L36.5454 42.5707L36.3208 42.7204L36.0813 42.8626L35.8343 42.9823L35.5724 43.0871L35.3104 43.1769L35.0335 43.2518L34.7565 43.3042L34.4646 43.3416L34.1727 43.3641L33.8733 43.3715L33.5664 43.3566L33.2596 43.3191L32.9452 43.2668L32.6383 43.1994L32.3165 43.1096L32.0021 43.0048L31.6877 42.8775L31.3734 42.7353L31.059 42.5782L30.7447 42.3985L30.4303 42.1964L30.1234 41.9868L29.824 41.7473L29.5246 41.5003L29.2252 41.2309L28.9408 40.9539L28.6639 40.6546L28.3869 40.3327L28.1175 40.0034L27.863 39.6591L27.616 39.2998L27.3765 38.9181L27.1445 38.5289L26.9274 38.1247L26.7178 37.713L26.5232 37.2789L26.3436 36.8448L26.1714 36.3882L26.0142 35.9316L25.8646 35.4526L25.7373 34.9736L25.6176 34.4871L25.5202 33.9856L25.4304 33.4766L25.3556 32.9676L25.3032 32.4512L25.2583 31.9273L25.2358 31.3958L25.2209 30.8644L25.2283 30.3255L25.2433 29.7941L25.2807 29.2552L25.3331 28.7088L25.408 28.1699L25.4903 27.631L25.5876 27.0921L25.7074 26.5532L25.8346 26.0217L25.9843 25.4903L26.149 24.9664L26.3286 24.4424L26.5157 23.926L26.7253 23.417L26.9498 22.9155L27.1819 22.4215L27.4289 21.935L27.6908 21.456L27.9678 20.9919L28.2522 20.5279L28.5516 20.0863L28.866 19.6447L29.1878 19.2255L29.5171 18.8139L29.8614 18.4097L30.2132 18.0279L30.5725 17.6537L30.9393 17.2944L31.3135 16.9576L31.6952 16.6283L32.0919 16.3139L32.4811 16.0145L32.8853 15.7376L33.2895 15.4681L33.6937 15.2211L34.1053 14.9891L34.517 14.772L34.9287 14.5774L35.3403 14.3978L35.7595 14.2331L36.1711 14.0834L36.5828 13.9562L36.9945 13.8439L37.3987 13.7541L37.8028 13.6718L38.207 13.6119L38.5962 13.567L38.9854 13.5445L39.3672 13.5371H39.7414L40.1082 13.567L40.4674 13.6044L40.8192 13.6568L41.156 13.7242L41.4854 13.814L41.8072 13.9113L42.1141 14.0236L42.406 14.1508L42.6904 14.293L42.9599 14.4502L43.2144 14.6149L43.4539 14.7945L43.6784 14.9816L43.888 15.1837L44.0826 15.3933L44.2622 15.6103L44.4269 15.8424L44.5766 16.0819L44.7038 16.3289L44.8161 16.5759L44.9059 16.8379L44.9808 17.0998L45.0407 17.3693L45.0856 17.6462L45.1005 17.9232L45.108 18.2076L45.0931 18.4845L45.0556 18.7764L45.0032 19.0608L44.9359 19.3453L44.8461 19.6297L44.7338 19.9141L44.6065 20.1985L44.4643 20.4755L44.2997 20.7524L44.12 21.0294L43.9179 21.2913L43.7009 21.5533L43.4688 21.8153L43.2144 22.0623L42.9524 22.3018L42.668 22.5413L42.3686 22.7658L42.0542 22.9829L41.7249 23.1925L41.3806 23.3871L41.0213 23.5742L40.6471 23.7463L40.2653 23.911L39.8686 24.0607L39.457 24.1954L39.0378 24.3227L38.6037 24.435L38.1621 24.5323L37.713 24.6146L37.249 24.6819L36.7849 24.7343L36.3059 24.7718L35.8268 24.7942L35.3403 24.8092L34.8463 24.7942L34.3449 24.7718L33.8434 24.7343L33.3419 24.6745L32.8329 24.5996L32.3165 24.5098L31.8075 24.405L31.2985 24.2853L30.7896 24.1505L30.2806 23.9933L29.7716 23.8212L29.2627 23.6341L28.7612 23.4395L28.2672 23.2149L27.7732 22.9829L27.2867 22.7359L26.8002 22.4739L26.3286 22.197L25.8646 21.9126L25.4005 21.6057L24.9514 21.2913L24.5098 20.962L24.0832 20.6177L23.664 20.2584L23.2523 19.8991L22.8557 19.5174L22.4664 19.1357L22.0922 18.739L21.7329 18.3273L21.3886 17.9157L21.0518 17.489L20.7374 17.0624L20.4306 16.6208L20.1461 16.1792L19.8692 15.7301L19.6072 15.281L19.3677 14.8244L19.1432 14.3604L18.9336 13.8963L18.739 13.4323L18.5594 12.9682L18.4022 12.4967L18.2525 12.0326L18.1327 11.5685L18.0205 11.1045L17.9232 10.6404L17.8483 10.1839L17.7884 9.72728L17.7435 9.27819L17.7136 8.8291L17.7061 8.39498V7.96086L17.7286 7.53423L17.766 7.12256L17.8184 6.7109L17.8857 6.3142L17.9606 5.92499L18.0579 5.55075L18.1702 5.18399L18.2899 4.82472L18.4246 4.48791L18.5743 4.15857L18.7315 3.84421L18.9037 3.53733L19.0908 3.25291L19.2779 2.98346L19.4875 2.72149L19.6971 2.48197L19.9141 2.25743L20.1461 2.04786L20.3857 1.86073L20.6252 1.68858L20.8797 1.5314L21.1341 1.38919L21.3961 1.26943L21.6581 1.17213L21.9275 1.08231L22.197 1.02244L22.4739 0.970041L22.7434 0.947587L23.0203 0.932617L23.2973 0.947587L23.5742 0.970041L23.8436 1.02244L24.1131 1.08231L24.3826 1.17213L24.652 1.26943L24.9065 1.38919L25.161 1.5314L25.4155 1.68858L25.655 1.86073L25.8945 2.04786L26.1265 2.25743L26.3436 2.48197L26.5606 2.72149L26.7627 2.98346L26.9573 3.25291L27.137 3.53733L27.3091 3.84421L27.4663 4.15857L27.616 4.48791L27.7507 4.82472L27.8705 5.18399L27.9828 5.55075L28.0801 5.92499L28.1624 6.3142L28.2223 6.7109L28.2747 7.12256L28.3121 7.53423L28.3345 7.96086V8.39498L28.3271 8.8291L28.2971 9.27819L28.2522 9.72728L28.1923 10.1839L28.1175 10.6404L28.0202 11.1045L27.9154 11.5685L27.7881 12.0326L27.6385 12.4967L27.4813 12.9682L27.3016 13.4323L27.107 13.8963L26.8975 14.3604L26.6729 14.8244L26.4334 15.281L26.1714 15.7301L25.902 16.1792L25.6101 16.6208L25.3032 17.0624L24.9888 17.489L24.652 17.9157L24.3077 18.3273L23.9484 18.739L23.5742 19.1357L23.185 19.5174L22.7883 19.8991L22.3841 20.2584L21.9575 20.6177L21.5308 20.962L21.0892 21.2913L20.6401 21.6057L20.1761 21.9126L19.712 22.197L19.2405 22.4739L18.754 22.7359L18.2675 22.9829L17.7735 23.2149L17.2795 23.4395L16.778 23.6341L16.269 23.8212L15.7675 23.9933L15.2586 24.1505L14.7421 24.2853L14.2331 24.405L13.7242 24.5098L13.2152 24.5996L12.7062 24.6745L12.1973 24.7343L11.6958 24.7718L11.1943 24.7942L10.7003 24.8092L10.2138 24.7942L9.73476 24.7718L9.25574 24.7343L8.79168 24.6819L8.32762 24.6146L7.87853 24.5323L7.43692 24.435L7.00281 24.3227L6.58366 24.1954L6.17199 24.0607L5.7753 23.911L5.39357 23.7463L5.01933 23.5742L4.66006 23.3871L4.31576 23.1925L3.98642 22.9829L3.67206 22.7658L3.37267 22.5413L3.08825 22.3018L2.82628 22.0623L2.57179 21.8153L2.33976 21.5533L2.1227 21.2913L1.92061 21.0294L1.74098 20.7524L1.57631 20.4755L1.4341 20.1985L1.30686 19.9141L1.19459 19.6297L1.11225 19.3453L1.0374 19.0608L0.985011 18.7764L0.947587 18.4845L0.932617 18.2076L0.940102 17.9232L0.962556 17.6462L0.999981 17.3693L1.05986 17.0998L1.13471 16.8379L1.22453 16.5759L1.3368 16.3289L1.47152 16.0819L1.61374 15.8424L1.7784 15.6103L1.95804 15.3933L2.15264 15.1837L2.36222 14.9816L2.58676 14.7945L2.82628 14.6149L3.08076 14.4502L3.35021 14.293L3.63464 14.1508L3.92654 14.0236L4.23342 13.9113L4.55527 13.814L4.8846 13.7242L5.22142 13.6568L5.57321 13.6044L5.93248 13.567L6.29923 13.5371H6.67347L7.0552 13.5445L7.44441 13.567L7.84111 13.6119L8.2378 13.6718L8.64198 13.7541L9.04616 13.8439L9.45783 13.9562L9.86949 14.0834L10.2812 14.2331L10.7003 14.3978L11.112 14.5774L11.5236 14.772L11.9428 14.9891L12.347 15.2211L12.7586 15.4681L13.1628 15.7376L13.5595 16.0145L13.9562 16.3139L14.3454 16.6283L14.7271 16.9576L15.1014 17.2944L15.4681 17.6537L15.8274 18.0279L16.1792 18.4097L16.5235 18.8139L16.8528 19.2255L17.1747 19.6447L17.489 20.0863L17.7884 20.5279L18.0729 20.9919L18.3498 21.456L18.6118 21.935L18.8588 22.4215L19.0983 22.9155L19.3153 23.417L19.5249 23.926L19.7195 24.4424L19.8917 24.9664L20.0563 25.4903L20.206 26.0217L20.3333 26.5532L20.453 27.0921L20.5503 27.631L20.6401 28.1699L20.7075 28.7088L20.7599 29.2552L20.7973 29.7941L20.8198 30.3255V30.8644L20.8123 31.3958L20.7824 31.9273L20.7374 32.4512L20.6851 32.9676L20.6102 33.4766L20.5204 33.9856L20.4231 34.4871L20.3033 34.9736L20.1761 35.4526L20.0264 35.9316L19.8692 36.3882L19.6971 36.8448L19.5174 37.2789L19.3228 37.713L19.1132 38.1247L18.8962 38.5289L18.6642 38.9181L18.4246 39.2998L18.1776 39.6591L17.9232 40.0034L17.6537 40.3327L17.3842 40.6546L17.0998 40.9539L16.8154 41.2309L16.516 41.5003L16.2241 41.7473L15.9172 41.9868L15.6103 42.1964L15.296 42.3985L14.9816 42.5782L14.6747 42.7353L14.3529 42.8775L14.0385 43.0048L13.7242 43.1096L13.4098 43.1994L13.0954 43.2668L12.7811 43.3191L12.4742 43.3566L12.1748 43.3715L11.8754 43.3641L11.576 43.3416L11.2916 43.3042L11.0072 43.2518L10.7302 43.1769L10.4683 43.0871L10.2063 42.9823L9.95931 42.8626L9.71979 42.7204L9.49525 42.5707L9.27819 42.3985L9.06862 42.2114L8.8815 42.0168L8.69437 41.7997L8.52971 41.5752L8.37253 41.3357L8.2378 41.0887L8.11056 40.8267L7.99829 40.5498L7.90098 40.2653L7.82614 39.9734L7.75877 39.674L7.71386 39.3597L7.68392 39.0378L7.66895 38.716L7.67644 38.3792L7.69889 38.0424L7.73632 37.698L7.78871 37.3463L7.86356 36.9945L7.95338 36.6352L8.06565 36.2759L8.19289 35.9167L8.3351 35.5574L8.49977 35.1981L8.67941 34.8314L8.8815 34.4721L9.09107 34.1128L9.3231 33.761L9.57758 33.4092L9.84704 33.0575L10.1315 32.7132L10.4309 32.3763L10.7452 32.047L11.0745 31.7177L11.4263 31.4033L11.7856 31.089L12.1598 30.7896L12.5491 30.4977L12.9607 30.2132L13.3724 29.9363L13.8065 29.6743L14.2481 29.4273L14.7047 29.1878L15.1687 28.9558L15.6403 28.7462L16.1268 28.5441L16.6208 28.3495L17.1223 28.1774L17.6387 28.0202L18.1552 27.8705L18.6791 27.7358L19.2031 27.6235L19.742 27.5187L20.2809 27.4364L20.8273 27.3615L21.3737 27.3091L21.9201 27.2717L22.4664 27.2418L23.0203 27.2343ZM23.0203 27.2343L23.5742 27.2418L24.1206 27.2717L24.667 27.3091L25.2134 27.3615L25.7598 27.4364L26.2987 27.5187L26.8376 27.6235L27.3615 27.7358L27.8929 27.8705L28.4094 28.0202L28.9184 28.1774L29.4198 28.3495L29.9138 28.5441L30.4003 28.7462L30.8794 28.9558L31.3434 29.1878L31.7925 29.4273L32.2341 29.6743L32.6683 29.9363L33.0874 30.2132L33.4916 30.4977L33.8808 30.7896L34.255 31.089L34.6218 31.4033L34.9661 31.7177L35.2954 32.047L35.6173 32.3763L35.9167 32.7132L36.2011 33.0575L36.4631 33.4092L36.7175 33.761L36.9496 34.1128L37.1666 34.4721L37.3612 34.8314L37.5409 35.1981L37.7055 35.5574L37.8477 35.9167L37.975 36.2759L38.0873 36.6352L38.1771 36.9945L38.2519 37.3463L38.3118 37.698L38.3492 38.0424L38.3717 38.3792V38.716L38.3567 39.0378L38.3268 39.3597L38.2819 39.674L38.2145 39.9734L38.1397 40.2653L38.0424 40.5498L37.9301 40.8267L37.8103 41.0887L37.6681 41.3357L37.5109 41.5752L37.3463 41.7997L37.1666 42.0168L36.972 42.2114L36.7624 42.3985L36.5454 42.5707L36.3208 42.7204L36.0813 42.8626L35.8343 42.9823L35.5724 43.0871L35.3104 43.1769L35.0335 43.2518L34.7565 43.3042L34.4646 43.3416L34.1727 43.3641L33.8733 43.3715L33.5664 43.3566L33.2596 43.3191L32.9452 43.2668L32.6383 43.1994L32.3165 43.1096L32.0021 43.0048L31.6877 42.8775L31.3734 42.7353L31.059 42.5782L30.7447 42.3985L30.4303 42.1964L30.1234 41.9868L29.824 41.7473L29.5246 41.5003L29.2252 41.2309L28.9408 40.9539L28.6639 40.6546L28.3869 40.3327L28.1175 40.0034L27.863 39.6591L27.616 39.2998L27.3765 38.9181L27.1445 38.5289L26.9274 38.1247L26.7178 37.713L26.5232 37.2789L26.3436 36.8448L26.1714 36.3882L26.0142 35.9316L25.8646 35.4526L25.7373 34.9736L25.6176 34.4871L25.5202 33.9856L25.4304 33.4766L25.3556 32.9676L25.3032 32.4512L25.2583 31.9273L25.2358 31.3958L25.2209 30.8644L25.2283 30.3255L25.2433 29.7941L25.2807 29.2552L25.3331 28.7088L25.408 28.1699L25.4903 27.631L25.5876 27.0921L25.7074 26.5532L25.8346 26.0217L25.9843 25.4903L26.149 24.9664L26.3286 24.4424L26.5157 23.926L26.7253 23.417L26.9498 22.9155L27.1819 22.4215L27.4289 21.935L27.6908 21.456L27.9678 20.9919L28.2522 20.5279L28.5516 20.0863L28.866 19.6447L29.1878 19.2255L29.5171 18.8139L29.8614 18.4097L30.2132 18.0279L30.5725 17.6537L30.9393 17.2944L31.3135 16.9576L31.6952 16.6283L32.0919 16.3139L32.4811 16.0145L32.8853 15.7376L33.2895 15.4681L33.6937 15.2211L34.1053 14.9891L34.517 14.772L34.9287 14.5774L35.3403 14.3978L35.7595 14.2331L36.1711 14.0834L36.5828 13.9562L36.9945 13.8439L37.3987 13.7541L37.8028 13.6718L38.207 13.6119L38.5962 13.567L38.9854 13.5445L39.3672 13.5371H39.7414L40.1082 13.567L40.4674 13.6044L40.8192 13.6568L41.156 13.7242L41.4854 13.814L41.8072 13.9113L42.1141 14.0236L42.406 14.1508L42.6904 14.293L42.9599 14.4502L43.2144 14.6149L43.4539 14.7945L43.6784 14.9816L43.888 15.1837L44.0826 15.3933L44.2622 15.6103L44.4269 15.8424L44.5766 16.0819L44.7038 16.3289L44.8161 16.5759L44.9059 16.8379L44.9808 17.0998L45.0407 17.3693L45.0856 17.6462L45.1005 17.9232L45.108 18.2076L45.0931 18.4845L45.0556 18.7764L45.0032 19.0608L44.9359 19.3453L44.8461 19.6297L44.7338 19.9141L44.6065 20.1985L44.4643 20.4755L44.2997 20.7524L44.12 21.0294L43.9179 21.2913L43.7009 21.5533L43.4688 21.8153L43.2144 22.0623L42.9524 22.3018L42.668 22.5413L42.3686 22.7658L42.0542 22.9829L41.7249 23.1925L41.3806 23.3871L41.0213 23.5742L40.6471 23.7463L40.2653 23.911L39.8686 24.0607L39.457 24.1954L39.0378 24.3227L38.6037 24.435L38.1621 24.5323L37.713 24.6146L37.249 24.6819L36.7849 24.7343L36.3059 24.7718L35.8268 24.7942L35.3403 24.8092L34.8463 24.7942L34.3449 24.7718L33.8434 24.7343L33.3419 24.6745L32.8329 24.5996L32.3165 24.5098L31.8075 24.405L31.2985 24.2853L30.7896 24.1505L30.2806 23.9933L29.7716 23.8212L29.2627 23.6341L28.7612 23.4395L28.2672 23.2149L27.7732 22.9829L27.2867 22.7359L26.8002 22.4739L26.3286 22.197L25.8646 21.9126L25.4005 21.6057L24.9514 21.2913L24.5098 20.962L24.0832 20.6177L23.664 20.2584L23.2523 19.8991L22.8557 19.5174L22.4664 19.1357L22.0922 18.739L21.7329 18.3273L21.3886 17.9157L21.0518 17.489L20.7374 17.0624L20.4306 16.6208L20.1461 16.1792L19.8692 15.7301L19.6072 15.281L19.3677 14.8244L19.1432 14.3604L18.9336 13.8963L18.739 13.4323L18.5594 12.9682L18.4022 12.4967L18.2525 12.0326L18.1327 11.5685L18.0205 11.1045L17.9232 10.6404L17.8483 10.1839L17.7884 9.72728L17.7435 9.27819L17.7136 8.8291L17.7061 8.39498V7.96086L17.7286 7.53423L17.766 7.12256L17.8184 6.7109L17.8857 6.3142L17.9606 5.92499L18.0579 5.55075L18.1702 5.18399L18.2899 4.82472L18.4246 4.48791L18.5743 4.15857L18.7315 3.84421L18.9037 3.53733L19.0908 3.25291L19.2779 2.98346L19.4875 2.72149L19.6971 2.48197L19.9141 2.25743L20.1461 2.04786L20.3857 1.86073L20.6252 1.68858L20.8797 1.5314L21.1341 1.38919L21.3961 1.26943L21.6581 1.17213L21.9275 1.08231L22.197 1.02244L22.4739 0.970041L22.7434 0.947587L23.0203 0.932617L23.2973 0.947587L23.5742 0.970041L23.8436 1.02244L24.1131 1.08231L24.3826 1.17213L24.652 1.26943L24.9065 1.38919L25.161 1.5314L25.4155 1.68858L25.655 1.86073L25.8945 2.04786L26.1265 2.25743L26.3436 2.48197L26.5606 2.72149L26.7627 2.98346L26.9573 3.25291L27.137 3.53733L27.3091 3.84421L27.4663 4.15857L27.616 4.48791L27.7507 4.82472L27.8705 5.18399L27.9828 5.55075L28.0801 5.92499L28.1624 6.3142L28.2223 6.7109L28.2747 7.12256L28.3121 7.53423L28.3345 7.96086V8.39498L28.3271 8.8291L28.2971 9.27819L28.2522 9.72728L28.1923 10.1839L28.1175 10.6404L28.0202 11.1045L27.9154 11.5685L27.7881 12.0326L27.6385 12.4967L27.4813 12.9682L27.3016 13.4323L27.107 13.8963L26.8975 14.3604L26.6729 14.8244L26.4334 15.281L26.1714 15.7301L25.902 16.1792L25.6101 16.6208L25.3032 17.0624L24.9888 17.489L24.652 17.9157L24.3077 18.3273L23.9484 18.739L23.5742 19.1357L23.185 19.5174L22.7883 19.8991L22.3841 20.2584L21.9575 20.6177L21.5308 20.962L21.0892 21.2913L20.6401 21.6057L20.1761 21.9126L19.712 22.197L19.2405 22.4739L18.754 22.7359L18.2675 22.9829L17.7735 23.2149L17.2795 23.4395L16.778 23.6341L16.269 23.8212L15.7675 23.9933L15.2586 24.1505L14.7421 24.2853L14.2331 24.405L13.7242 24.5098L13.2152 24.5996L12.7062 24.6745L12.1973 24.7343L11.6958 24.7718L11.1943 24.7942L10.7003 24.8092L10.2138 24.7942L9.73476 24.7718L9.25574 24.7343L8.79168 24.6819L8.32762 24.6146L7.87853 24.5323L7.43692 24.435L7.00281 24.3227L6.58366 24.1954L6.17199 24.0607L5.7753 23.911L5.39357 23.7463L5.01933 23.5742L4.66006 23.3871L4.31576 23.1925L3.98642 22.9829L3.67206 22.7658L3.37267 22.5413L3.08825 22.3018L2.82628 22.0623L2.57179 21.8153L2.33976 21.5533L2.1227 21.2913L1.92061 21.0294L1.74098 20.7524L1.57631 20.4755L1.4341 20.1985L1.30686 19.9141L1.19459 19.6297L1.11225 19.3453L1.0374 19.0608L0.985011 18.7764L0.947587 18.4845L0.932617 18.2076L0.940102 17.9232L0.962556 17.6462L0.999981 17.3693L1.05986 17.0998L1.13471 16.8379L1.22453 16.5759L1.3368 16.3289L1.47152 16.0819L1.61374 15.8424L1.7784 15.6103L1.95804 15.3933L2.15264 15.1837L2.36222 14.9816L2.58676 14.7945L2.82628 14.6149L3.08076 14.4502L3.35021 14.293L3.63464 14.1508L3.92654 14.0236L4.23342 13.9113L4.55527 13.814L4.8846 13.7242L5.22142 13.6568L5.57321 13.6044L5.93248 13.567L6.29923 13.5371H6.67347L7.0552 13.5445L7.44441 13.567L7.84111 13.6119L8.2378 13.6718L8.64198 13.7541L9.04616 13.8439L9.45783 13.9562L9.86949 14.0834L10.2812 14.2331L10.7003 14.3978L11.112 14.5774L11.5236 14.772L11.9428 14.9891L12.347 15.2211L12.7586 15.4681L13.1628 15.7376L13.5595 16.0145L13.9562 16.3139L14.3454 16.6283L14.7271 16.9576L15.1014 17.2944L15.4681 17.6537L15.8274 18.0279L16.1792 18.4097L16.5235 18.8139L16.8528 19.2255L17.1747 19.6447L17.489 20.0863L17.7884 20.5279L18.0729 20.9919L18.3498 21.456L18.6118 21.935L18.8588 22.4215L19.0983 22.9155L19.3153 23.417L19.5249 23.926L19.7195 24.4424L19.8917 24.9664L20.0563 25.4903L20.206 26.0217L20.3333 26.5532L20.453 27.0921L20.5503 27.631L20.6401 28.1699L20.7075 28.7088L20.7599 29.2552L20.7973 29.7941L20.8198 30.3255V30.8644L20.8123 31.3958L20.7824 31.9273L20.7374 32.4512L20.6851 32.9676L20.6102 33.4766L20.5204 33.9856L20.4231 34.4871L20.3033 34.9736L20.1761 35.4526L20.0264 35.9316L19.8692 36.3882L19.6971 36.8448L19.5174 37.2789L19.3228 37.713L19.1132 38.1247L18.8962 38.5289L18.6642 38.9181L18.4246 39.2998L18.1776 39.6591L17.9232 40.0034L17.6537 40.3327L17.3842 40.6546L17.0998 40.9539L16.8154 41.2309L16.516 41.5003L16.2241 41.7473L15.9172 41.9868L15.6103 42.1964L15.296 42.3985L14.9816 42.5782L14.6747 42.7353L14.3529 42.8775L14.0385 43.0048L13.7242 43.1096L13.4098 43.1994L13.0954 43.2668L12.7811 43.3191L12.4742 43.3566L12.1748 43.3715L11.8754 43.3641L11.576 43.3416L11.2916 43.3042L11.0072 43.2518L10.7302 43.1769L10.4683 43.0871L10.2063 42.9823L9.95931 42.8626L9.71979 42.7204L9.49525 42.5707L9.27819 42.3985L9.06862 42.2114L8.8815 42.0168L8.69437 41.7997L8.52971 41.5752L8.37253 41.3357L8.2378 41.0887L8.11056 40.8267L7.99829 40.5498L7.90098 40.2653L7.82614 39.9734L7.75877 39.674L7.71386 39.3597L7.68392 39.0378L7.66895 38.716L7.67644 38.3792L7.69889 38.0424L7.73632 37.698L7.78871 37.3463L7.86356 36.9945L7.95338 36.6352L8.06565 36.2759L8.19289 35.9167L8.3351 35.5574L8.49977 35.1981L8.67941 34.8314L8.8815 34.4721L9.09107 34.1128L9.3231 33.761L9.57758 33.4092L9.84704 33.0575L10.1315 32.7132L10.4309 32.3763L10.7452 32.047L11.0745 31.7177L11.4263 31.4033L11.7856 31.089L12.1598 30.7896L12.5491 30.4977L12.9607 30.2132L13.3724 29.9363L13.8065 29.6743L14.2481 29.4273L14.7047 29.1878L15.1687 28.9558L15.6403 28.7462L16.1268 28.5441L16.6208 28.3495L17.1223 28.1774L17.6387 28.0202L18.1552 27.8705L18.6791 27.7358L19.2031 27.6235L19.742 27.5187L20.2809 27.4364L20.8273 27.3615L21.3737 27.3091L21.9201 27.2717L22.4664 27.2418L23.0203 27.2343ZM23.0203 27.2343L23.5742 27.2418L24.1206 27.2717L24.667 27.3091L25.2134 27.3615L25.7598 27.4364L26.2987 27.5187L26.8376 27.6235L27.3615 27.7358L27.8929 27.8705L28.4094 28.0202L28.9184 28.1774L29.4198 28.3495L29.9138 28.5441L30.4003 28.7462L30.8794 28.9558L31.3434 29.1878L31.7925 29.4273L32.2341 29.6743L32.6683 29.9363L33.0874 30.2132L33.4916 30.4977L33.8808 30.7896L34.255 31.089L34.6218 31.4033L34.9661 31.7177L35.2954 32.047L35.6173 32.3763L35.9167 32.7132L36.2011 33.0575L36.4631 33.4092L36.7175 33.761L36.9496 34.1128L37.1666 34.4721L37.3612 34.8314L37.5409 35.1981L37.7055 35.5574L37.8477 35.9167L37.975 36.2759L38.0873 36.6352L38.1771 36.9945L38.2519 37.3463L38.3118 37.698L38.3492 38.0424L38.3717 38.3792V38.716L38.3567 39.0378L38.3268 39.3597L38.2819 39.674L38.2145 39.9734L38.1397 40.2653L38.0424 40.5498L37.9301 40.8267L37.8103 41.0887L37.6681 41.3357L37.5109 41.5752L37.3463 41.7997L37.1666 42.0168L36.972 42.2114L36.7624 42.3985L36.5454 42.5707L36.3208 42.7204L36.0813 42.8626L35.8343 42.9823L35.5724 43.0871L35.3104 43.1769L35.0335 43.2518L34.7565 43.3042L34.4646 43.3416L34.1727 43.3641L33.8733 43.3715L33.5664 43.3566L33.2596 43.3191L32.9452 43.2668L32.6383 43.1994L32.3165 43.1096L32.0021 43.0048L31.6877 42.8775L31.3734 42.7353L31.059 42.5782L30.7447 42.3985L30.4303 42.1964L30.1234 41.9868L29.824 41.7473L29.5246 41.5003L29.2252 41.2309L28.9408 40.9539L28.6639 40.6546L28.3869 40.3327L28.1175 40.0034L27.863 39.6591L27.616 39.2998L27.3765 38.9181L27.1445 38.5289L26.9274 38.1247L26.7178 37.713L26.5232 37.2789L26.3436 36.8448L26.1714 36.3882L26.0142 35.9316L25.8646 35.4526L25.7373 34.9736L25.6176 34.4871L25.5202 33.9856L25.4304 33.4766L25.3556 32.9676L25.3032 32.4512L25.2583 31.9273L25.2358 31.3958L25.2209 30.8644L25.2283 30.3255L25.2433 29.7941L25.2807 29.2552L25.3331 28.7088L25.408 28.1699L25.4903 27.631L25.5876 27.0921L25.7074 26.5532L25.8346 26.0217L25.9843 25.4903L26.149 24.9664L26.3286 24.4424L26.5157 23.926L26.7253 23.417L26.9498 22.9155L27.1819 22.4215L27.4289 21.935L27.6908 21.456L27.9678 20.9919L28.2522 20.5279L28.5516 20.0863L28.866 19.6447L29.1878 19.2255L29.5171 18.8139L29.8614 18.4097L30.2132 18.0279L30.5725 17.6537L30.9393 17.2944L31.3135 16.9576L31.6952 16.6283L32.0919 16.3139L32.4811 16.0145L32.8853 15.7376L33.2895 15.4681L33.6937 15.2211L34.1053 14.9891L34.517 14.772L34.9287 14.5774L35.3403 14.3978L35.7595 14.2331L36.1711 14.0834L36.5828 13.9562L36.9945 13.8439L37.3987 13.7541L37.8028 13.6718L38.207 13.6119L38.5962 13.567L38.9854 13.5445L39.3672 13.5371H39.7414L40.1082 13.567L40.4674 13.6044L40.8192 13.6568L41.156 13.7242L41.4854 13.814L41.8072 13.9113L42.1141 14.0236L42.406 14.1508L42.6904 14.293L42.9599 14.4502L43.2144 14.6149L43.4539 14.7945L43.6784 14.9816L43.888 15.1837L44.0826 15.3933L44.2622 15.6103L44.4269 15.8424L44.5766 16.0819L44.7038 16.3289L44.8161 16.5759L44.9059 16.8379L44.9808 17.0998L45.0407 17.3693L45.0856 17.6462L45.1005 17.9232L45.108 18.2076L45.0931 18.4845L45.0556 18.7764L45.0032 19.0608L44.9359 19.3453L44.8461 19.6297L44.7338 19.9141L44.6065 20.1985L44.4643 20.4755L44.2997 20.7524L44.12 21.0294L43.9179 21.2913L43.7009 21.5533L43.4688 21.8153L43.2144 22.0623L42.9524 22.3018L42.668 22.5413L42.3686 22.7658L42.0542 22.9829L41.7249 23.1925L41.3806 23.3871L41.0213 23.5742L40.6471 23.7463L40.2653 23.911L39.8686 24.0607L39.457 24.1954L39.0378 24.3227L38.6037 24.435L38.1621 24.5323L37.713 24.6146L37.249 24.6819L36.7849 24.7343L36.3059 24.7718L35.8268 24.7942L35.3403 24.8092L34.8463 24.7942L34.3449 24.7718L33.8434 24.7343L33.3419 24.6745L32.8329 24.5996L32.3165 24.5098L31.8075 24.405L31.2985 24.2853L30.7896 24.1505L30.2806 23.9933L29.7716 23.8212L29.2627 23.6341L28.7612 23.4395L28.2672 23.2149L27.7732 22.9829L27.2867 22.7359L26.8002 22.4739L26.3286 22.197L25.8646 21.9126L25.4005 21.6057L24.9514 21.2913L24.5098 20.962L24.0832 20.6177L23.664 20.2584L23.2523 19.8991L22.8557 19.5174L22.4664 19.1357L22.0922 18.739L21.7329 18.3273L21.3886 17.9157L21.0518 17.489L20.7374 17.0624L20.4306 16.6208L20.1461 16.1792L19.8692 15.7301L19.6072 15.281L19.3677 14.8244L19.1432 14.3604L18.9336 13.8963L18.739 13.4323L18.5594 12.9682L18.4022 12.4967L18.2525 12.0326L18.1327 11.5685L18.0205 11.1045L17.9232 10.6404L17.8483 10.1839L17.7884 9.72728L17.7435 9.27819L17.7136 8.8291L17.7061 8.39498V7.96086L17.7286 7.53423L17.766 7.12256L17.8184 6.7109L17.8857 6.3142L17.9606 5.92499L18.0579 5.55075L18.1702 5.18399L18.2899 4.82472L18.4246 4.48791L18.5743 4.15857L18.7315 3.84421L18.9037 3.53733L19.0908 3.25291L19.2779 2.98346L19.4875 2.72149L19.6971 2.48197L19.9141 2.25743L20.1461 2.04786L20.3857 1.86073L20.6252 1.68858L20.8797 1.5314L21.1341 1.38919L21.3961 1.26943L21.6581 1.17213L21.9275 1.08231L22.197 1.02244L22.4739 0.970041L22.7434 0.947587L23.0203 0.932617L23.2973 0.947587L23.5742 0.970041L23.8436 1.02244L24.1131 1.08231L24.3826 1.17213L24.652 1.26943L24.9065 1.38919L25.161 1.5314L25.4155 1.68858L25.655 1.86073L25.8945 2.04786L26.1265 2.25743L26.3436 2.48197L26.5606 2.72149L26.7627 2.98346L26.9573 3.25291L27.137 3.53733L27.3091 3.84421L27.4663 4.15857L27.616 4.48791L27.7507 4.82472L27.8705 5.18399L27.9828 5.55075L28.0801 5.92499L28.1624 6.3142L28.2223 6.7109L28.2747 7.12256L28.3121 7.53423L28.3345 7.96086V8.39498L28.3271 8.8291L28.2971 9.27819L28.2522 9.72728L28.1923 10.1839L28.1175 10.6404L28.0202 11.1045L27.9154 11.5685L27.7881 12.0326L27.6385 12.4967L27.4813 12.9682L27.3016 13.4323L27.107 13.8963L26.8975 14.3604L26.6729 14.8244L26.4334 15.281L26.1714 15.7301L25.902 16.1792L25.6101 16.6208L25.3032 17.0624L24.9888 17.489L24.652 17.9157L24.3077 18.3273L23.9484 18.739L23.5742 19.1357L23.185 19.5174L22.7883 19.8991L22.3841 20.2584L21.9575 20.6177L21.5308 20.962L21.0892 21.2913L20.6401 21.6057L20.1761 21.9126L19.712 22.197L19.2405 22.4739L18.754 22.7359L18.2675 22.9829L17.7735 23.2149L17.2795 23.4395L16.778 23.6341L16.269 23.8212L15.7675 23.9933L15.2586 24.1505L14.7421 24.2853L14.2331 24.405L13.7242 24.5098L13.2152 24.5996L12.7062 24.6745L12.1973 24.7343L11.6958 24.7718L11.1943 24.7942L10.7003 24.8092L10.2138 24.7942L9.73476 24.7718L9.25574 24.7343L8.79168 24.6819L8.32762 24.6146L7.87853 24.5323L7.43692 24.435L7.00281 24.3227L6.58366 24.1954L6.17199 24.0607L5.7753 23.911L5.39357 23.7463L5.01933 23.5742L4.66006 23.3871L4.31576 23.1925L3.98642 22.9829L3.67206 22.7658L3.37267 22.5413L3.08825 22.3018L2.82628 22.0623L2.57179 21.8153L2.33976 21.5533L2.1227 21.2913L1.92061 21.0294L1.74098 20.7524L1.57631 20.4755L1.4341 20.1985L1.30686 19.9141L1.19459 19.6297L1.11225 19.3453L1.0374 19.0608L0.985011 18.7764L0.947587 18.4845L0.932617 18.2076L0.940102 17.9232L0.962556 17.6462L0.999981 17.3693L1.05986 17.0998L1.13471 16.8379L1.22453 16.5759L1.3368 16.3289L1.47152 16.0819L1.61374 15.8424L1.7784 15.6103L1.95804 15.3933L2.15264 15.1837L2.36222 14.9816L2.58676 14.7945L2.82628 14.6149L3.08076 14.4502L3.35021 14.293L3.63464 14.1508L3.92654 14.0236L4.23342 13.9113L4.55527 13.814L4.8846 13.7242L5.22142 13.6568L5.57321 13.6044L5.93248 13.567L6.29923 13.5371H6.67347L7.0552 13.5445L7.44441 13.567L7.84111 13.6119L8.2378 13.6718L8.64198 13.7541L9.04616 13.8439L9.45783 13.9562L9.86949 14.0834L10.2812 14.2331L10.7003 14.3978L11.112 14.5774L11.5236 14.772L11.9428 14.9891L12.347 15.2211L12.7586 15.4681L13.1628 15.7376L13.5595 16.0145L13.9562 16.3139L14.3454 16.6283L14.7271 16.9576L15.1014 17.2944L15.4681 17.6537L15.8274 18.0279L16.1792 18.4097L16.5235 18.8139L16.8528 19.2255L17.1747 19.6447L17.489 20.0863L17.7884 20.5279L18.0729 20.9919L18.3498 21.456L18.6118 21.935L18.8588 22.4215L19.0983 22.9155L19.3153 23.417L19.5249 23.926L19.7195 24.4424L19.8917 24.9664L20.0563 25.4903L20.206 26.0217L20.3333 26.5532L20.453 27.0921L20.5503 27.631L20.6401 28.1699L20.7075 28.7088L20.7599 29.2552L20.7973 29.7941L20.8198 30.3255V30.8644L20.8123 31.3958L20.7824 31.9273L20.7374 32.4512L20.6851 32.9676L20.6102 33.4766L20.5204 33.9856L20.4231 34.4871L20.3033 34.9736L20.1761 35.4526L20.0264 35.9316L19.8692 36.3882L19.6971 36.8448L19.5174 37.2789L19.3228 37.713L19.1132 38.1247L18.8962 38.5289L18.6642 38.9181L18.4246 39.2998L18.1776 39.6591L17.9232 40.0034L17.6537 40.3327L17.3842 40.6546L17.0998 40.9539L16.8154 41.2309L16.516 41.5003L16.2241 41.7473L15.9172 41.9868L15.6103 42.1964L15.296 42.3985L14.9816 42.5782L14.6747 42.7353L14.3529 42.8775L14.0385 43.0048L13.7242 43.1096L13.4098 43.1994L13.0954 43.2668L12.7811 43.3191L12.4742 43.3566L12.1748 43.3715L11.8754 43.3641L11.576 43.3416L11.2916 43.3042L11.0072 43.2518L10.7302 43.1769L10.4683 43.0871L10.2063 42.9823L9.95931 42.8626L9.71979 42.7204L9.49525 42.5707L9.27819 42.3985L9.06862 42.2114L8.8815 42.0168L8.69437 41.7997L8.52971 41.5752L8.37253 41.3357L8.2378 41.0887L8.11056 40.8267L7.99829 40.5498L7.90098 40.2653L7.82614 39.9734L7.75877 39.674L7.71386 39.3597L7.68392 39.0378L7.66895 38.716L7.67644 38.3792L7.69889 38.0424L7.73632 37.698L7.78871 37.3463L7.86356 36.9945L7.95338 36.6352L8.06565 36.2759L8.19289 35.9167L8.3351 35.5574L8.49977 35.1981L8.67941 34.8314L8.8815 34.4721L9.09107 34.1128L9.3231 33.761L9.57758 33.4092L9.84704 33.0575L10.1315 32.7132L10.4309 32.3763L10.7452 32.047L11.0745 31.7177L11.4263 31.4033L11.7856 31.089L12.1598 30.7896L12.5491 30.4977L12.9607 30.2132L13.3724 29.9363L13.8065 29.6743L14.2481 29.4273L14.7047 29.1878L15.1687 28.9558L15.6403 28.7462L16.1268 28.5441L16.6208 28.3495L17.1223 28.1774L17.6387 28.0202L18.1552 27.8705L18.6791 27.7358L19.2031 27.6235L19.742 27.5187L20.2809 27.4364L20.8273 27.3615L21.3737 27.3091L21.9201 27.2717L22.4664 27.2418L23.0203 27.2343Z" stroke="#024B51" stroke-width="1.848"/>
<g clip-path="url(#clip0_696_8907)">
<path d="M23.2069 27.3592C28.4417 27.3592 34.0004 29.6196 36.9087 34.1328C38.3075 36.3416 39.007 39.478 37.2989 41.6942C35.7454 43.6894 32.7782 43.5495 30.8051 42.2758C27.1974 40.0155 25.5408 35.5611 25.3789 31.4528C25.1285 24.3774 29.2737 16.8308 36.1503 14.4159C44.6835 11.5886 48.7845 20.3574 40.1776 24.0903C32.0788 27.1163 22.5075 21.8815 19.1796 14.2318C17.8543 11.1616 17.3978 7.39195 18.9882 4.33649C19.325 3.49293 19.907 2.76973 20.6591 2.26027C21.4111 1.75082 22.2986 1.47852 23.2069 1.47852C24.1153 1.47852 25.0027 1.75082 25.7547 2.26027C26.5068 2.76973 27.0888 3.49293 27.4257 4.33649C29.016 7.39195 28.5521 11.1616 27.2269 14.2318C23.8916 21.9109 14.3571 27.1163 6.23619 24.0829C-2.34856 20.4016 1.69349 11.5665 10.2635 14.4159C17.1328 16.8308 21.3074 24.3774 21.0276 31.4528C20.873 35.5611 19.2164 40.0155 15.6014 42.2758C13.6282 43.5422 10.6611 43.6968 9.10759 41.6942C7.39947 39.4854 8.10628 36.3269 9.4978 34.1328C12.406 29.6196 17.9721 27.3666 23.2069 27.3592Z" stroke="#024B51" stroke-width="1.82592"/>
</g>
<defs>
<clipPath id="clip0_696_8907">
<rect width="44.9485" height="43.2256" fill="white" transform="translate(0.736328 0.736328)"/>
</clipPath>
</defs>
</svg>
