<svg width="174" height="85" viewBox="0 0 348 171" fill="none" xmlns="http://www.w3.org/2000/svg">
    <rect width="100%" height="100%" fill="#FFFFFF"/>
<path d="M90.4 14.8C82.1333 16.6667 69.4667 23.7333 62.5333 30.2667C41.3333 50 36 80.5333 48.9333 106.533C57.0667 122.8 76 136.8 94.1333 140.267C105.2 142.267 106.933 141.467 106.4 134.4L106 128.667L98.4 127.733C82.5333 125.733 66.2667 113.467 58.9333 97.6C55.8667 91.0667 55.3333 88.2667 55.3333 77.3333C55.3333 66 55.7333 63.7333 59.4667 56C66.6667 40.6667 80.6667 29.7333 97.0667 26.6667C106.4 24.9333 106.667 24.8 106.667 18.5333V13.3333L101.067 13.4667C97.8667 13.6 93.0667 14.1333 90.4 14.8Z" fill="black"/>
<path d="M94.2667 40.5333C77.2 46.9333 68 60 68 78C68 96.6667 82.8 113.467 100.8 114.933L106 115.333V109.6V103.867L98.9333 101.467C95.0667 100.133 90.4 97.6 88.5333 95.8667C78.4 86.4 77.7333 71.0667 87.0667 60.4C92.2667 54.5333 98 52 106 52C109.333 52 114 52.8 116.4 53.8667C122.533 56.4 129.067 64.4 130.8 71.3333C132.267 77.3333 132.4 77.3333 138.133 77.3333C143.733 77.3333 144 77.0667 144 73.6C144 62.4 135.6 49.7333 124 43.4667C115.467 38.8 102.267 37.4667 94.2667 40.5333Z" fill="black"/>
<path d="M16.5333 86.2667C20.2667 122.8 47.8667 154.933 83.4667 164C89.2 165.467 96.6667 166.667 100.267 166.667H106.667V160.8V154.933L100.4 154.133C70.5333 150 49.0667 135.6 36.9333 111.2C32.8 102.933 29.3333 90.1333 29.3333 82.8V77.3333H22.5333H15.6L16.5333 86.2667Z" fill="black"/>
<path d="M179.931 103.333C178.715 103.333 177.595 103.029 176.571 102.421C175.579 101.813 174.779 101.013 174.171 100.021C173.563 98.9973 173.259 97.8773 173.259 96.6613V75.4453C173.259 74.2293 173.563 73.1253 174.171 72.1333C174.779 71.1093 175.579 70.2933 176.571 69.6853C177.595 69.0773 178.715 68.7733 179.931 68.7733H201.147C202.363 68.7733 203.467 69.0773 204.459 69.6853C205.483 70.2933 206.299 71.1093 206.907 72.1333C207.515 73.1253 207.819 74.2293 207.819 75.4453V96.6613C207.819 97.8773 207.515 98.9973 206.907 100.021C206.299 101.013 205.483 101.813 204.459 102.421C203.467 103.029 202.363 103.333 201.147 103.333H179.931ZM180.171 96.9493H200.811C200.971 96.9493 201.115 96.9013 201.243 96.8053C201.371 96.6773 201.435 96.5333 201.435 96.3733V75.7333C201.435 75.5733 201.371 75.4453 201.243 75.3493C201.115 75.2213 200.971 75.1573 200.811 75.1573H180.171C180.011 75.1573 179.867 75.2213 179.739 75.3493C179.643 75.4453 179.595 75.5733 179.595 75.7333V96.3733C179.595 96.5333 179.643 96.6773 179.739 96.8053C179.867 96.9013 180.011 96.9493 180.171 96.9493ZM213.009 114.373V75.4933H234.657C235.873 75.4933 236.977 75.7973 237.969 76.4053C238.993 77.0133 239.793 77.8133 240.369 78.8053C240.977 79.7973 241.281 80.9013 241.281 82.1173V96.7093C241.281 97.9253 240.977 99.0293 240.369 100.021C239.793 101.013 238.993 101.813 237.969 102.421C236.977 103.029 235.873 103.333 234.657 103.333H219.297V114.373H213.009ZM219.873 97.0453H234.417C234.577 97.0453 234.705 96.9973 234.801 96.9013C234.929 96.7733 234.993 96.6293 234.993 96.4693V82.3573C234.993 82.1973 234.929 82.0693 234.801 81.9733C234.705 81.8453 234.577 81.7813 234.417 81.7813H219.873C219.713 81.7813 219.569 81.8453 219.441 81.9733C219.345 82.0693 219.297 82.1973 219.297 82.3573V96.4693C219.297 96.6293 219.345 96.7733 219.441 96.9013C219.569 96.9973 219.713 97.0453 219.873 97.0453ZM251.46 103.333C250.244 103.333 249.14 103.029 248.148 102.421C247.156 101.813 246.356 101.013 245.748 100.021C245.14 99.0293 244.836 97.9253 244.836 96.7093V66.9493H251.124V75.4933H261.972V81.7813H251.124V96.4693C251.124 96.6293 251.172 96.7733 251.268 96.9013C251.396 96.9973 251.54 97.0453 251.7 97.0453H261.972V103.333H251.46ZM265.881 103.333V75.4933H272.169V103.333H265.881ZM265.881 72.7093V66.3733H272.169V72.7093H265.881ZM276.618 92.3413V86.0533H310.602V92.3413H276.618ZM322.567 103.333C321.351 103.333 320.247 103.029 319.255 102.421C318.263 101.813 317.463 101.013 316.855 100.021C316.247 99.0293 315.943 97.9253 315.943 96.7093V82.1173C315.943 80.9013 316.247 79.7973 316.855 78.8053C317.463 77.8133 318.263 77.0133 319.255 76.4053C320.247 75.7973 321.351 75.4933 322.567 75.4933H337.591C338.807 75.4933 339.911 75.7973 340.903 76.4053C341.927 77.0133 342.727 77.8133 343.303 78.8053C343.911 79.7973 344.215 80.9013 344.215 82.1173V92.5813H322.231V96.4693C322.231 96.6293 322.279 96.7733 322.375 96.9013C322.503 96.9973 322.647 97.0453 322.807 97.0453H344.215V103.333H322.567ZM322.231 86.9173H337.927V82.3573C337.927 82.1973 337.863 82.0693 337.735 81.9733C337.639 81.8453 337.511 81.7813 337.351 81.7813H322.807C322.647 81.7813 322.503 81.8453 322.375 81.9733C322.279 82.0693 322.231 82.1973 322.231 82.3573V86.9173Z" fill="black"/>
</svg>
