<?xml version="1.0" standalone="no"?>
<!DOCTYPE svg PUBLIC "-//W3C//DTD SVG 20010904//EN"
 "http://www.w3.org/TR/2001/REC-SVG-20010904/DTD/svg10.dtd">
<svg version="1.0" xmlns="http://www.w3.org/2000/svg"
 width="128.000000pt" height="128.000000pt" viewBox="0 0 128.000000 128.000000"
 preserveAspectRatio="xMidYMid meet">
<rect width="100%" height="100%" fill="#FFFFFF"/>
<g transform="translate(0.000000,128.000000) scale(0.100000,-0.100000)"
fill="#000000" stroke="none">
<path d="M678 1169 c-62 -14 -157 -67 -209 -116 -159 -148 -199 -377 -102
-572 61 -122 203 -227 339 -253 83 -15 96 -9 92 44 l-3 43 -57 7 c-119 15
-241 107 -296 226 -23 49 -27 70 -27 152 0 85 3 102 31 160 54 115 159 197
282 220 70 13 72 14 72 61 l0 39 -42 -1 c-24 -1 -60 -5 -80 -10z"/>
<path d="M707 976 c-128 -48 -197 -146 -197 -281 0 -140 111 -266 246 -277
l39 -3 0 43 0 43 -53 18 c-29 10 -64 29 -78 42 -76 71 -81 186 -11 266 39 44
82 63 142 63 25 0 60 -6 78 -14 46 -19 95 -79 108 -131 11 -45 12 -45 55 -45
42 0 44 2 44 28 0 84 -63 179 -150 226 -64 35 -163 45 -223 22z"/>
<path d="M124 633 c28 -274 235 -515 502 -583 43 -11 99 -20 126 -20 l48 0 0
44 0 44 -47 6 c-224 31 -385 139 -476 322 -31 62 -57 158 -57 213 l0 41 -51 0
-52 0 7 -67z"/>
</g>
</svg>
